<svg width="81" height="84" viewBox="0 0 81 84" fill="none" xmlns="http://www.w3.org/2000/svg">
<path d="M8.75 0C6.33008 0 4.375 1.95508 4.375 4.375V13.125C4.375 15.5449 6.33008 17.5 8.75 17.5H19.6875V21.875H11.8945C7.57422 21.875 3.89648 25.0332 3.24023 29.3125L0.150391 49.7793C0.0546875 50.4219 0 51.0781 0 51.7344V61.25C0 66.0762 3.92383 70 8.75 70H61.25C66.0762 70 70 66.0762 70 61.25V51.7344C70 51.0781 69.9453 50.4219 69.8496 49.7656L66.7461 29.3125C66.1035 25.0332 62.4258 21.875 58.1055 21.875H28.4375V17.5H39.375C41.7949 17.5 43.75 15.5449 43.75 13.125V4.375C43.75 1.95508 41.7949 0 39.375 0H8.75ZM13.125 6.5625H35C36.2031 6.5625 37.1875 7.54687 37.1875 8.75C37.1875 9.95313 36.2031 10.9375 35 10.9375H13.125C11.9219 10.9375 10.9375 9.95313 10.9375 8.75C10.9375 7.54687 11.9219 6.5625 13.125 6.5625ZM8.75 59.0625C8.75 57.8594 9.73437 56.875 10.9375 56.875H59.0625C60.2656 56.875 61.25 57.8594 61.25 59.0625C61.25 60.2656 60.2656 61.25 59.0625 61.25H10.9375C9.73437 61.25 8.75 60.2656 8.75 59.0625ZM15.3125 36.0938C14.4423 36.0938 13.6077 35.748 12.9923 35.1327C12.377 34.5173 12.0312 33.6827 12.0312 32.8125C12.0312 31.9423 12.377 31.1077 12.9923 30.4923C13.6077 29.877 14.4423 29.5313 15.3125 29.5312C16.1827 29.5313 17.0173 29.877 17.6327 30.4923C18.248 31.1077 18.5938 31.9423 18.5938 32.8125C18.5938 33.6827 18.248 34.5173 17.6327 35.1327C17.0173 35.748 16.1827 36.0938 15.3125 36.0938ZM31.7188 32.8125C31.7187 33.6827 31.373 34.5173 30.7577 35.1327C30.1423 35.748 29.3077 36.0938 28.4375 36.0938C27.5673 36.0938 26.7327 35.748 26.1173 35.1327C25.502 34.5173 25.1563 33.6827 25.1562 32.8125C25.1562 31.9423 25.502 31.1077 26.1173 30.4923C26.7327 29.877 27.5673 29.5313 28.4375 29.5312C29.3077 29.5313 30.1423 29.877 30.7577 30.4923C31.373 31.1077 31.7188 31.9423 31.7188 32.8125ZM21.875 47.0312C21.0048 47.0312 20.1702 46.6855 19.5548 46.0702C18.9395 45.4548 18.5938 44.6202 18.5938 43.75C18.5938 42.8798 18.9395 42.0452 19.5548 41.4298C20.1702 40.8145 21.0048 40.4688 21.875 40.4688C22.7452 40.4688 23.5798 40.8145 24.1952 41.4298C24.8105 42.0452 25.1562 42.8798 25.1562 43.75C25.1562 44.6202 24.8105 45.4548 24.1952 46.0702C23.5798 46.6855 22.7452 47.0312 21.875 47.0312ZM44.8438 32.8125C44.8438 33.6827 44.498 34.5173 43.8827 35.1327C43.2673 35.748 42.4327 36.0938 41.5625 36.0938C40.6923 36.0938 39.8577 35.748 39.2423 35.1327C38.627 34.5173 38.2812 33.6827 38.2812 32.8125C38.2812 31.9423 38.627 31.1077 39.2423 30.4923C39.8577 29.877 40.6923 29.5313 41.5625 29.5312C42.4327 29.5313 43.2673 29.877 43.8827 30.4923C44.498 31.1077 44.8438 31.9423 44.8438 32.8125ZM35 47.0312C34.1298 47.0312 33.2952 46.6855 32.6798 46.0702C32.0645 45.4548 31.7188 44.6202 31.7188 43.75C31.7188 42.8798 32.0645 42.0452 32.6798 41.4298C33.2952 40.8145 34.1298 40.4688 35 40.4688C35.8702 40.4688 36.7048 40.8145 37.3202 41.4298C37.9355 42.0452 38.2812 42.8798 38.2812 43.75C38.2812 44.6202 37.9355 45.4548 37.3202 46.0702C36.7048 46.6855 35.8702 47.0312 35 47.0312ZM57.9688 32.8125C57.9688 33.2434 57.8839 33.6701 57.719 34.0682C57.5541 34.4663 57.3124 34.828 57.0077 35.1327C56.703 35.4374 56.3413 35.6791 55.9432 35.844C55.5451 36.0089 55.1184 36.0938 54.6875 36.0938C54.2566 36.0938 53.8299 36.0089 53.4318 35.844C53.0337 35.6791 52.672 35.4374 52.3673 35.1327C52.0626 34.828 51.8209 34.4663 51.656 34.0682C51.4911 33.6701 51.4062 33.2434 51.4062 32.8125C51.4062 32.3816 51.4911 31.9549 51.656 31.5568C51.8209 31.1587 52.0626 30.797 52.3673 30.4923C52.672 30.1876 53.0337 29.9459 53.4318 29.781C53.8299 29.6161 54.2566 29.5312 54.6875 29.5312C55.1184 29.5312 55.5451 29.6161 55.9432 29.781C56.3413 29.9459 56.703 30.1876 57.0077 30.4923C57.3124 30.797 57.5541 31.1587 57.719 31.5568C57.8839 31.9549 57.9688 32.3816 57.9688 32.8125ZM48.125 47.0312C47.2548 47.0312 46.4202 46.6855 45.8048 46.0702C45.1895 45.4548 44.8438 44.6202 44.8438 43.75C44.8438 42.8798 45.1895 42.0452 45.8048 41.4298C46.4202 40.8145 47.2548 40.4688 48.125 40.4688C48.9952 40.4688 49.8298 40.8145 50.4452 41.4298C51.0605 42.0452 51.4062 42.8798 51.4062 43.75C51.4062 44.6202 51.0605 45.4548 50.4452 46.0702C49.8298 46.6855 48.9952 47.0312 48.125 47.0312Z" fill="white"/>
<circle cx="54.9823" cy="56.5" r="8.83333" fill="#877650"/>
<path d="M80.2846 65.9277L80.2849 65.9269C80.691 64.8228 80.3444 63.607 79.4888 62.8372C79.4883 62.8368 79.4878 62.8363 79.4873 62.8359L75.1995 58.9343C75.2951 58.1374 75.3469 57.3234 75.3469 56.5C75.3469 55.6766 75.2951 54.8626 75.1995 54.0657L79.4873 50.1641C79.4877 50.1637 79.4882 50.1633 79.4886 50.1629C80.2635 49.4658 80.621 48.4029 80.38 47.3884L80.406 47.3624L80.2949 47.062C79.8302 45.8049 79.2707 44.6018 78.6277 43.4423L78.6278 43.4422L78.6229 43.4338L78.1364 42.5953L78.1364 42.5953L78.1327 42.589C77.4361 41.4282 76.6555 40.3312 75.8016 39.2981L75.8008 39.297C75.0498 38.3934 73.8179 38.0896 72.7285 38.4362L67.2099 40.1899C65.9135 39.2194 64.4974 38.3973 62.9925 37.7549L61.7541 32.098L61.754 32.0976C61.5071 30.9744 60.6354 30.0606 59.4631 29.869C58.0077 29.6265 56.5106 29.5 54.9822 29.5C53.4545 29.5 51.9567 29.6264 50.4996 29.8796C49.3281 30.0718 48.4572 30.9854 48.2105 32.1079L48.2104 32.1083L46.972 37.7653C45.467 38.4076 44.0509 39.2298 42.7546 40.2002L37.236 38.4466C37.2359 38.4466 37.2359 38.4466 37.2358 38.4465C37.2358 38.4465 37.2358 38.4465 37.2358 38.4465C36.1505 38.1013 34.9159 38.3902 34.1623 39.3091C33.3086 40.342 32.5282 41.4388 31.8318 42.5994L31.8318 42.5994L31.8281 42.6057L31.3416 43.4442L31.3415 43.4441L31.3368 43.4526C30.6938 44.6121 30.1343 45.8152 29.6695 47.0723L29.6692 47.0731C29.2631 48.1773 29.6098 49.3932 30.4656 50.163C30.466 50.1634 30.4664 50.1637 30.4668 50.1641L34.7546 54.0657C34.659 54.8626 34.6072 55.6766 34.6072 56.5C34.6072 57.3246 34.6592 58.1394 34.7549 58.9443L30.4668 62.8462C30.4665 62.8465 30.4661 62.8468 30.4658 62.8471C29.6099 63.6169 29.263 64.833 29.6692 65.9372L29.6695 65.938C30.1343 67.1951 30.6938 68.3982 31.3368 69.5577L31.3367 69.5578L31.3416 69.5662L31.8281 70.4046L31.828 70.4047L31.8318 70.411C32.5283 71.5718 33.3089 72.6688 34.1628 73.7019L34.1637 73.703C34.9146 74.6066 36.1465 74.9104 37.236 74.5638L37.2368 74.5635L42.7448 72.8002C44.041 73.7705 45.4569 74.5925 46.9617 75.2347L48.2 80.8917L48.2001 80.8921C48.447 82.0152 49.3186 82.929 50.4909 83.1206C51.9463 83.3632 53.4435 83.4896 54.9719 83.4896C56.5003 83.4896 57.9975 83.3632 59.4529 83.1206C60.6252 82.929 61.4968 82.0152 61.7436 80.8921L61.7437 80.8917L62.9821 75.2347C64.4871 74.5924 65.9032 73.7702 67.1995 72.7998L72.7181 74.5534C73.8037 74.8988 75.0385 74.6097 75.7922 73.6904C76.6457 72.6577 77.426 71.5611 78.1223 70.4006L78.1223 70.4006L78.126 70.3943L78.6126 69.5558L78.6126 69.5559L78.6173 69.5474C79.2603 68.3879 79.8198 67.1848 80.2846 65.9277ZM60.4844 62.0022C59.0251 63.4614 57.0459 64.2812 54.9822 64.2812C52.9185 64.2812 50.9393 63.4614 49.4801 62.0022C48.0208 60.5429 47.201 58.5637 47.201 56.5C47.201 54.4363 48.0208 52.4571 49.4801 50.9978C50.9393 49.5386 52.9185 48.7187 54.9822 48.7187C57.0459 48.7187 59.0251 49.5386 60.4844 50.9978C61.9437 52.4571 62.7635 54.4363 62.7635 56.5C62.7635 58.5637 61.9437 60.5429 60.4844 62.0022Z" fill="white" stroke="#877650"/>
</svg>
