<svg width="80" height="84" viewBox="0 0 80 84" fill="none" xmlns="http://www.w3.org/2000/svg">
<path fill-rule="evenodd" clip-rule="evenodd" d="M8.75502 0C6.33371 0 4.37751 1.9562 4.37751 4.37751V13.1325C4.37751 15.5538 6.33371 17.51 8.75502 17.51H19.6988V21.8876H11.9014C7.57857 21.8876 3.89872 25.0476 3.24209 29.3293L0.150477 49.8079C0.0547189 50.4508 0 51.1074 0 51.7641V61.2852C0 66.1141 3.92608 70.0402 8.75502 70.0402H31.033L30.9219 69.8488L30.9172 69.8403C30.2623 68.6593 29.6917 67.4324 29.2173 66.1494L29.2167 66.1478C28.7354 64.8393 29.1496 63.4107 30.1475 62.5124L30.1499 62.5102L31.4962 61.2852H10.9438C9.73996 61.2852 8.75502 60.3002 8.75502 59.0964C8.75502 57.8926 9.73996 56.9076 10.9438 56.9076H34.1303C34.128 56.7828 34.1268 56.6577 34.1268 56.5324C34.1268 55.7762 34.1694 55.0284 34.2485 54.2945L30.1499 50.565L30.1474 50.5628C29.1496 49.6645 28.7354 48.2359 29.2167 46.9274L29.2173 46.9258C29.6917 45.6428 30.2623 44.4159 30.9172 43.235L30.9219 43.2264L31.4173 42.3727L31.4211 42.3664C32.131 41.1833 32.9262 40.0658 33.7955 39.0139C34.6926 37.9205 36.1484 37.5908 37.409 37.9919L42.6872 39.6692C43.8896 38.7917 45.1898 38.0375 46.565 37.43L47.7493 32.0198C48.0359 30.7159 49.0539 29.6328 50.4452 29.4035C51.9318 29.1452 53.4584 29.0166 55.0138 29.0166C56.5703 29.0166 58.0956 29.1454 59.5786 29.3925C60.9718 29.6205 61.9912 30.7036 62.278 32.0086L63.4626 37.4197C64.8378 38.0272 66.1379 38.7813 67.3404 39.6588L68.3053 39.3522L66.7844 29.3293C66.1415 25.0476 62.4616 21.8876 58.1388 21.8876H28.4538V17.51H39.3976C41.8189 17.51 43.7751 15.5538 43.7751 13.1325V4.37751C43.7751 1.9562 41.8189 0 39.3976 0H8.75502ZM13.1325 6.56627H35.0201C36.2239 6.56627 37.2088 7.55121 37.2088 8.75502C37.2088 9.95884 36.2239 10.9438 35.0201 10.9438H13.1325C11.9287 10.9438 10.9438 9.95884 10.9438 8.75502C10.9438 7.55121 11.9287 6.56627 13.1325 6.56627ZM15.3213 36.1145C14.4506 36.1145 13.6155 35.7686 12.9998 35.1529C12.3841 34.5372 12.0382 33.7021 12.0382 32.8313C12.0382 31.9606 12.3841 31.1255 12.9998 30.5098C13.6155 29.8941 14.4506 29.5482 15.3213 29.5482C16.192 29.5482 17.0271 29.8941 17.6428 30.5098C18.2585 31.1255 18.6044 31.9606 18.6044 32.8313C18.6044 33.7021 18.2585 34.5372 17.6428 35.1529C17.0271 35.7686 16.192 36.1145 15.3213 36.1145ZM31.737 32.8313C31.737 33.7021 31.3911 34.5372 30.7754 35.1529C30.1596 35.7686 29.3246 36.1145 28.4538 36.1145C27.5831 36.1145 26.748 35.7686 26.1323 35.1529C25.5166 34.5372 25.1707 33.7021 25.1707 32.8313C25.1707 31.9606 25.5166 31.1255 26.1323 30.5098C26.748 29.8941 27.5831 29.5482 28.4538 29.5482C29.3246 29.5482 30.1596 29.8941 30.7754 30.5098C31.3911 31.1255 31.737 31.9606 31.737 32.8313ZM21.8876 47.0582C21.0168 47.0582 20.1817 46.7123 19.566 46.0966C18.9503 45.4809 18.6044 44.6459 18.6044 43.7751C18.6044 42.9044 18.9503 42.0693 19.566 41.4536C20.1817 40.8379 21.0168 40.492 21.8876 40.492C22.7583 40.492 23.5934 40.8379 24.2091 41.4536C24.8248 42.0693 25.1707 42.9044 25.1707 43.7751C25.1707 44.6459 24.8248 45.4809 24.2091 46.0966C23.5934 46.7123 22.7583 47.0582 21.8876 47.0582ZM44.8695 32.8313C44.8695 33.7021 44.5236 34.5372 43.9079 35.1529C43.2922 35.7686 42.4571 36.1145 41.5864 36.1145C40.7156 36.1145 39.8805 35.7686 39.2648 35.1529C38.6491 34.5372 38.3032 33.7021 38.3032 32.8313C38.3032 31.9606 38.6491 31.1255 39.2648 30.5098C39.8805 29.8941 40.7156 29.5482 41.5864 29.5482C42.4571 29.5482 43.2922 29.8941 43.9079 30.5098C44.5236 31.1255 44.8695 31.9606 44.8695 32.8313Z" fill="white"/>
<path fill-rule="evenodd" clip-rule="evenodd" d="M79.1986 49.8208C79.9132 49.1786 80.1929 48.1739 79.8615 47.2728L79.8718 47.2625C79.4161 46.0299 78.8671 44.8492 78.2353 43.7098L77.7485 42.8709C77.0649 41.7316 76.2985 40.6544 75.4595 39.6393C74.8484 38.904 73.8334 38.645 72.9219 38.935L67.1528 40.7683C65.7649 39.7015 64.232 38.8107 62.5955 38.1375L61.3008 32.2234C61.0937 31.2808 60.3686 30.5351 59.4157 30.3797C57.9864 30.1415 56.5156 30.0172 55.0138 30.0172C53.512 30.0172 52.0412 30.1415 50.6119 30.3901C49.659 30.5455 48.9339 31.2912 48.7268 32.2337L47.4321 38.1479C45.7956 38.8211 44.2627 39.7118 42.8748 40.7787L37.1057 38.9454C36.1942 38.6554 35.1792 38.904 34.5681 39.6497C33.7291 40.6647 32.9627 41.7419 32.2791 42.8812L31.7923 43.7202C31.1605 44.8595 30.6115 46.0403 30.1558 47.2728C29.8243 48.1739 30.104 49.1786 30.8187 49.8208L35.3035 53.9016C35.1895 54.7613 35.1274 55.6417 35.1274 56.5324C35.1274 57.4232 35.1895 58.3036 35.3035 59.1736L30.8187 63.2544C30.104 63.8966 29.8243 64.9013 30.1558 65.8024C30.6115 67.0349 31.1605 68.2157 31.7923 69.355L32.2791 70.194C32.9627 71.3333 33.7291 72.4105 34.5681 73.4255C35.1792 74.1609 36.1942 74.4198 37.1057 74.1298L42.8644 72.2862C44.2523 73.353 45.7853 74.2438 47.4217 74.917L48.7164 80.8311C48.9236 81.7737 49.6486 82.5194 50.6015 82.6748C52.0308 82.913 53.5016 83.0373 55.0034 83.0373C56.5053 83.0373 57.976 82.913 59.4054 82.6748C60.3583 82.5194 61.0833 81.7737 61.2904 80.8311L62.5851 74.917C64.2216 74.2438 65.7545 73.353 67.1424 72.2862L72.9116 74.1195C73.823 74.4095 74.8381 74.1609 75.4492 73.4152C76.2881 72.4001 77.0546 71.3229 77.7382 70.1836L78.225 69.3447C78.8568 68.2053 79.4057 67.0246 79.8615 65.792C80.1929 64.8909 79.9132 63.8863 79.1986 63.2441L74.7138 59.1632C74.8277 58.3036 74.8898 57.4232 74.8898 56.5324C74.8898 55.6417 74.8277 54.7613 74.7138 53.9016L79.1986 49.8208ZM60.8729 62.3915C59.319 63.9454 57.2114 64.8184 55.0138 64.8184C52.8162 64.8184 50.7086 63.9454 49.1547 62.3915C47.6008 60.8376 46.7278 58.73 46.7278 56.5324C46.7278 54.3348 47.6008 52.2273 49.1547 50.6733C50.7086 49.1194 52.8162 48.2464 55.0138 48.2464C57.2114 48.2464 59.319 49.1194 60.8729 50.6733C62.4268 52.2273 63.2998 54.3348 63.2998 56.5324C63.2998 58.73 62.4268 60.8376 60.8729 62.3915Z" fill="white"/>
</svg>
