<?xml version="1.0" encoding="utf-8"?>
<!-- Generator: Adobe Illustrator 27.3.1, SVG Export Plug-In . SVG Version: 6.00 Build 0)  -->
<svg version="1.1" id="圖層_1" xmlns="http://www.w3.org/2000/svg" xmlns:xlink="http://www.w3.org/1999/xlink" x="0px" y="0px"
	 viewBox="0 0 26 26" style="enable-background:new 0 0 26 26;" xml:space="preserve">
<style type="text/css">
	.st0{clip-path:url(#SVGID_00000061436291983597191590000016115566737427896977_);}
	.st1{fill:#EC7556;}
</style>
<g>
	<g>
		<defs>
			<path id="SVGID_1_" d="M13,0L13,0c7.2,0,13,5.8,13,13l0,0c0,7.2-5.8,13-13,13l0,0C5.8,26,0,20.2,0,13l0,0C0,5.8,5.8,0,13,0z"/>
		</defs>
		<clipPath id="SVGID_00000062168493491961673290000004885191639683886241_">
			<use xlink:href="#SVGID_1_"  style="overflow:visible;"/>
		</clipPath>
		<g style="clip-path:url(#SVGID_00000062168493491961673290000004885191639683886241_);">
			<path class="st1" d="M13,0c-2.6,0-5.1,0.8-7.2,2.2C3.6,3.6,2,5.6,1,8s-1.2,5-0.7,7.5s1.7,4.8,3.6,6.7c1.8,1.8,4.1,3.1,6.7,3.6
				c2.4,0.5,5,0.2,7.4-0.8s4.4-2.7,5.8-4.8S26,15.5,26,13c0-3.4-1.4-6.8-3.8-9.2S16.4,0,13,0z M13,24c-2.2,0-4.3-0.6-6.1-1.9
				s-3.2-2.9-4.1-4.9s-1-4.2-0.6-6.3s1.5-4.1,3-5.6s3.5-2.6,5.6-3C13,1.8,15.2,2,17.2,2.8s3.7,2.2,4.9,4.1S24,10.8,24,13
				c0,2.9-1.2,5.7-3.2,7.8S15.9,24,13,24z M9.1,9.5C9.7,10.6,10,11.8,10,13s-0.3,2.4-0.9,3.5C9,16.6,9,16.7,8.9,16.8
				C8.8,16.9,8.7,17,8.6,17s-0.3,0.1-0.4,0c-0.1,0-0.3,0-0.4-0.1s-0.2-0.1-0.3-0.3c-0.1-0.1-0.1-0.2-0.2-0.3c0-0.1,0-0.3,0-0.4
				s0.1-0.3,0.1-0.4C7.8,14.8,8,13.9,8,13s-0.2-1.8-0.6-2.5C7.2,10.2,7.2,10,7.3,9.7c0.1-0.2,0.3-0.5,0.5-0.6C8,9,8.3,9,8.5,9.1
				C8.8,9.1,9,9.3,9.1,9.5z M16.1,5.5C17.4,7.8,18,10.4,18,13s-0.6,5.2-1.9,7.5c-0.1,0.2-0.3,0.4-0.6,0.4c-0.2,0.1-0.5,0-0.7-0.1
				s-0.4-0.3-0.5-0.6c-0.1-0.2-0.1-0.5,0-0.7c1.1-2,1.6-4.3,1.6-6.5s-0.6-4.5-1.6-6.5c-0.1-0.2-0.2-0.5-0.1-0.8
				c0.1-0.3,0.3-0.5,0.5-0.6C15,5,15.3,5,15.5,5C15.8,5.1,16,5.3,16.1,5.5L16.1,5.5z M12.6,7.5C13.5,9.2,14,11.1,14,13
				s-0.5,3.8-1.4,5.5c-0.1,0.1-0.1,0.2-0.2,0.3c-0.1,0.1-0.2,0.2-0.3,0.2s-0.3,0.1-0.4,0c-0.1,0-0.3-0.1-0.4-0.1
				c-0.1-0.1-0.2-0.1-0.3-0.3c-0.1-0.1-0.1-0.2-0.2-0.3c0-0.1,0-0.3,0-0.4s0.1-0.3,0.1-0.4c0.7-1.4,1.1-2.9,1.1-4.5
				s-0.4-3.1-1.1-4.5c-0.1-0.1-0.1-0.2-0.1-0.4c0-0.1,0-0.3,0-0.4s0.1-0.2,0.2-0.3c0.1-0.1,0.2-0.2,0.3-0.3C11.4,7,11.5,7,11.7,7
				c0.1,0,0.3,0,0.4,0c0.1,0,0.2,0.1,0.3,0.2C12.5,7.3,12.6,7.4,12.6,7.5z"/>
		</g>
	</g>
</g>
</svg>
