<svg width="14" height="14" viewBox="0 0 14 14" fill="none" xmlns="http://www.w3.org/2000/svg">
<g clip-path="url(#clip0_7720_6714)">
<path d="M7.00004 0.165283C5.64821 0.165283 4.32673 0.566149 3.20272 1.31719C2.07871 2.06823 1.20265 3.13571 0.685325 4.38464C0.168001 5.63357 0.0326448 7.00786 0.296375 8.33372C0.560105 9.65958 1.21108 10.8775 2.16697 11.8334C3.12286 12.7892 4.34074 13.4402 5.6666 13.7039C6.99246 13.9677 8.36675 13.8323 9.61568 13.315C10.8646 12.7977 11.9321 11.9216 12.6831 10.7976C13.4342 9.67359 13.835 8.35212 13.835 7.00028C13.8331 5.18811 13.1124 3.45072 11.831 2.16932C10.5496 0.887925 8.81221 0.167197 7.00004 0.165283ZM7.00004 12.7837C5.85618 12.7837 4.73801 12.4445 3.78692 11.8091C2.83584 11.1736 2.09456 10.2703 1.65682 9.21352C1.21908 8.15673 1.10455 6.99387 1.32771 5.87198C1.55086 4.7501 2.10169 3.71959 2.91052 2.91076C3.71935 2.10193 4.74986 1.55111 5.87174 1.32795C6.99363 1.10479 8.15649 1.21932 9.21327 1.65706C10.2701 2.0948 11.1733 2.83608 11.8088 3.78716C12.4443 4.73825 12.7835 5.85642 12.7835 7.00028C12.7818 8.53362 12.1719 10.0037 11.0876 11.0879C10.0034 12.1721 8.53338 12.782 7.00004 12.7837ZM4.96729 5.17718C5.26441 5.73893 5.41974 6.36479 5.41974 7.00028C5.41974 7.63577 5.26441 8.26163 4.96729 8.82339C4.93586 8.88589 4.89228 8.9415 4.83909 8.98695C4.7859 9.0324 4.72417 9.06677 4.65753 9.08806C4.59088 9.10935 4.52066 9.11712 4.45097 9.11093C4.38128 9.10473 4.31353 9.08469 4.25169 9.05197C4.18985 9.01926 4.13516 8.97453 4.09082 8.92041C4.04649 8.86629 4.0134 8.80386 3.99349 8.73679C3.97359 8.66972 3.96728 8.59935 3.97492 8.52981C3.98256 8.46026 4.004 8.39294 4.03799 8.33179C4.25802 7.92247 4.37318 7.465 4.37318 7.00028C4.37318 6.53557 4.25802 6.0781 4.03799 5.66877C3.9762 5.54587 3.96504 5.40366 4.0069 5.27262C4.04875 5.14159 4.14029 5.03218 4.26188 4.96786C4.38347 4.90354 4.52543 4.88943 4.6573 4.92856C4.78917 4.96769 4.90046 5.05695 4.96729 5.17718ZM8.64767 3.0741C9.29435 4.28244 9.63271 5.63175 9.63271 7.00225C9.63271 8.37276 9.29435 9.72207 8.64767 10.9304C8.57767 11.0453 8.46625 11.1291 8.33637 11.1643C8.20649 11.1996 8.06803 11.1837 7.94952 11.1199C7.831 11.0562 7.74145 10.9494 7.6993 10.8216C7.65716 10.6938 7.66563 10.5546 7.72297 10.4329C8.28847 9.37711 8.58437 8.19797 8.58437 7.00028C8.58437 5.80259 8.28847 4.62345 7.72297 3.56767C7.65726 3.44461 7.64312 3.30049 7.68367 3.16701C7.72422 3.03352 7.81614 2.92162 7.9392 2.85591C8.06225 2.79019 8.20638 2.77606 8.33986 2.81661C8.47334 2.85716 8.58524 2.94907 8.65096 3.07213L8.64767 3.0741ZM6.80748 4.12564C7.27948 5.01077 7.52638 5.99848 7.52638 7.0016C7.52638 8.00472 7.27948 8.99242 6.80748 9.87755C6.77573 9.93972 6.73191 9.99494 6.6786 10.04C6.62528 10.085 6.56352 10.119 6.49693 10.14C6.43034 10.1609 6.36025 10.1684 6.29075 10.1619C6.22124 10.1555 6.15371 10.1353 6.0921 10.1025C6.03049 10.0696 5.97603 10.0249 5.9319 9.97081C5.88777 9.91673 5.85485 9.8544 5.83506 9.78746C5.81526 9.72052 5.809 9.65031 5.81663 9.58093C5.82426 9.51154 5.84563 9.44437 5.8795 9.38333C6.27049 8.65034 6.47502 7.83235 6.47502 7.0016C6.47502 6.17084 6.27049 5.35286 5.8795 4.61986C5.84563 4.55882 5.82426 4.49165 5.81663 4.42227C5.809 4.35288 5.81526 4.28267 5.83506 4.21573C5.85485 4.14879 5.88777 4.08647 5.9319 4.03238C5.97603 3.9783 6.03049 3.93355 6.0921 3.90074C6.15371 3.86793 6.22124 3.84771 6.29075 3.84127C6.36025 3.83483 6.43034 3.8423 6.49693 3.86323C6.56352 3.88417 6.62528 3.91815 6.6786 3.9632C6.73191 4.00826 6.77573 4.06348 6.80748 4.12564Z" fill="#22798C"/>
</g>
<defs>
<clipPath id="clip0_7720_6714">
<rect width="14" height="14" rx="7" fill="white"/>
</clipPath>
</defs>
</svg>
