<svg width="41" height="41" viewBox="0 0 41 41" fill="none" xmlns="http://www.w3.org/2000/svg">
<g clip-path="url(#clip0_3581_14342)">
<rect x="0.5" y="0.5" width="40" height="40" rx="20" fill="#877650"/>
<path d="M20.5 0.5C16.5444 0.5 12.6776 1.67298 9.3886 3.87061C6.09962 6.06823 3.53617 9.19181 2.02242 12.8463C0.508666 16.5008 0.112599 20.5222 0.884303 24.4018C1.65601 28.2814 3.56082 31.8451 6.35787 34.6421C9.15492 37.4392 12.7186 39.344 16.5982 40.1157C20.4778 40.8874 24.4991 40.4913 28.1537 38.9776C31.8082 37.4638 34.9318 34.9004 37.1294 31.6114C39.327 28.3224 40.5 24.4556 40.5 20.5C40.4944 15.1974 38.3855 10.1136 34.636 6.36405C30.8864 2.61453 25.8026 0.5056 20.5 0.5ZM20.5 37.4231C17.1529 37.4231 13.881 36.4305 11.098 34.571C8.31506 32.7115 6.14599 30.0685 4.86512 26.9762C3.58426 23.8839 3.24912 20.4812 3.9021 17.1985C4.55508 13.9157 6.16685 10.9003 8.53358 8.53358C10.9003 6.16684 13.9157 4.55508 17.1985 3.90209C20.4812 3.24911 23.8839 3.58425 26.9762 4.86511C30.0685 6.14598 32.7115 8.31505 34.571 11.098C36.4306 13.881 37.4231 17.1529 37.4231 20.5C37.418 24.9867 35.6334 29.2882 32.4608 32.4608C29.2882 35.6334 24.9867 37.418 20.5 37.4231ZM14.5519 15.1654C15.4214 16.8091 15.8759 18.6405 15.8759 20.5C15.8759 22.3595 15.4214 24.1909 14.5519 25.8346C14.46 26.0175 14.3324 26.1802 14.1768 26.3132C14.0212 26.4462 13.8405 26.5468 13.6455 26.6091C13.4505 26.6714 13.245 26.6941 13.0411 26.676C12.8372 26.6579 12.639 26.5992 12.458 26.5035C12.2771 26.4078 12.117 26.2769 11.9873 26.1185C11.8576 25.9601 11.7607 25.7775 11.7025 25.5812C11.6443 25.385 11.6258 25.1791 11.6481 24.9756C11.6705 24.7721 11.7332 24.5751 11.8327 24.3961C12.4765 23.1984 12.8135 21.8598 12.8135 20.5C12.8135 19.1402 12.4765 17.8016 11.8327 16.6038C11.6519 16.2442 11.6192 15.8281 11.7417 15.4447C11.8642 15.0613 12.1321 14.7411 12.4878 14.5529C12.8436 14.3647 13.259 14.3234 13.6449 14.4379C14.0308 14.5524 14.3564 14.8136 14.5519 15.1654ZM25.3212 9.01154C27.2134 12.5473 28.2035 16.4955 28.2035 20.5058C28.2035 24.516 27.2134 28.4642 25.3212 32C25.1163 32.3363 24.7903 32.5813 24.4103 32.6845C24.0302 32.7876 23.6251 32.7412 23.2783 32.5546C22.9315 32.368 22.6694 32.0555 22.5461 31.6815C22.4228 31.3075 22.4476 30.9005 22.6154 30.5442C24.2701 27.4549 25.1359 24.0046 25.1359 20.5C25.1359 16.9954 24.2701 13.5451 22.6154 10.4558C22.4231 10.0957 22.3817 9.67397 22.5004 9.28339C22.619 8.89281 22.888 8.56536 23.2481 8.37308C23.6082 8.18079 24.0299 8.13943 24.4205 8.25808C24.811 8.37673 25.1385 8.64569 25.3308 9.00577L25.3212 9.01154ZM19.9365 12.0885C21.3177 14.6785 22.0401 17.5686 22.0401 20.5038C22.0401 23.4391 21.3177 26.3292 19.9365 28.9192C19.8436 29.1011 19.7154 29.2627 19.5594 29.3945C19.4034 29.5264 19.2227 29.6258 19.0279 29.6871C18.833 29.7483 18.6279 29.7702 18.4245 29.7513C18.2211 29.7325 18.0236 29.6733 17.8433 29.5773C17.663 29.4813 17.5036 29.3504 17.3745 29.1921C17.2454 29.0339 17.149 28.8515 17.0911 28.6556C17.0332 28.4597 17.0149 28.2543 17.0372 28.0513C17.0595 27.8482 17.1221 27.6517 17.2212 27.4731C18.3653 25.3282 18.9637 22.9347 18.9637 20.5038C18.9637 18.0729 18.3653 15.6794 17.2212 13.5346C17.1221 13.356 17.0595 13.1595 17.0372 12.9564C17.0149 12.7534 17.0332 12.548 17.0911 12.3521C17.149 12.1562 17.2454 11.9738 17.3745 11.8156C17.5036 11.6573 17.663 11.5264 17.8433 11.4304C18.0236 11.3344 18.2211 11.2752 18.4245 11.2564C18.6279 11.2375 18.833 11.2594 19.0279 11.3206C19.2227 11.3819 19.4034 11.4813 19.5594 11.6132C19.7154 11.745 19.8436 11.9066 19.9365 12.0885Z" fill="white"/>
<path d="M20.5 0.5C16.5444 0.5 12.6776 1.67298 9.3886 3.87061C6.09962 6.06823 3.53617 9.19181 2.02242 12.8463C0.508666 16.5008 0.112599 20.5222 0.884303 24.4018C1.65601 28.2814 3.56082 31.8451 6.35787 34.6421C9.15492 37.4392 12.7186 39.344 16.5982 40.1157C20.4778 40.8874 24.4991 40.4913 28.1537 38.9776C31.8082 37.4638 34.9318 34.9004 37.1294 31.6114C39.327 28.3224 40.5 24.4556 40.5 20.5C40.4944 15.1974 38.3855 10.1136 34.636 6.36405C30.8864 2.61453 25.8026 0.5056 20.5 0.5ZM20.5 37.4231C17.1529 37.4231 13.881 36.4305 11.098 34.571C8.31506 32.7115 6.14599 30.0685 4.86512 26.9762C3.58426 23.8839 3.24912 20.4812 3.9021 17.1985C4.55508 13.9157 6.16685 10.9003 8.53358 8.53358C10.9003 6.16684 13.9157 4.55508 17.1985 3.90209C20.4812 3.24911 23.8839 3.58425 26.9762 4.86511C30.0685 6.14598 32.7115 8.31505 34.571 11.098C36.4306 13.881 37.4231 17.1529 37.4231 20.5C37.418 24.9867 35.6334 29.2882 32.4608 32.4608C29.2882 35.6334 24.9867 37.418 20.5 37.4231ZM14.5519 15.1654C15.4214 16.8091 15.8759 18.6405 15.8759 20.5C15.8759 22.3595 15.4214 24.1909 14.5519 25.8346C14.46 26.0175 14.3324 26.1802 14.1768 26.3132C14.0212 26.4462 13.8405 26.5468 13.6455 26.6091C13.4505 26.6714 13.245 26.6941 13.0411 26.676C12.8372 26.6579 12.639 26.5992 12.458 26.5035C12.2771 26.4078 12.117 26.2769 11.9873 26.1185C11.8576 25.9601 11.7607 25.7775 11.7025 25.5812C11.6443 25.385 11.6258 25.1791 11.6481 24.9756C11.6705 24.7721 11.7332 24.5751 11.8327 24.3961C12.4765 23.1984 12.8135 21.8598 12.8135 20.5C12.8135 19.1402 12.4765 17.8016 11.8327 16.6038C11.6519 16.2442 11.6192 15.8281 11.7417 15.4447C11.8642 15.0613 12.1321 14.7411 12.4878 14.5529C12.8436 14.3647 13.259 14.3234 13.6449 14.4379C14.0308 14.5524 14.3564 14.8136 14.5519 15.1654ZM25.3212 9.01154C27.2134 12.5473 28.2035 16.4955 28.2035 20.5058C28.2035 24.516 27.2134 28.4642 25.3212 32C25.1163 32.3363 24.7903 32.5813 24.4103 32.6845C24.0302 32.7876 23.6251 32.7412 23.2783 32.5546C22.9315 32.368 22.6694 32.0555 22.5461 31.6815C22.4228 31.3075 22.4476 30.9005 22.6154 30.5442C24.2701 27.4549 25.1359 24.0046 25.1359 20.5C25.1359 16.9954 24.2701 13.5451 22.6154 10.4558C22.4231 10.0957 22.3817 9.67397 22.5004 9.28339C22.619 8.89281 22.888 8.56536 23.2481 8.37308C23.6082 8.18079 24.0299 8.13943 24.4205 8.25808C24.811 8.37673 25.1385 8.64569 25.3308 9.00577L25.3212 9.01154ZM19.9365 12.0885C21.3177 14.6785 22.0401 17.5686 22.0401 20.5038C22.0401 23.4391 21.3177 26.3292 19.9365 28.9192C19.8436 29.1011 19.7154 29.2627 19.5594 29.3945C19.4034 29.5264 19.2227 29.6258 19.0279 29.6871C18.833 29.7483 18.6279 29.7702 18.4245 29.7513C18.2211 29.7325 18.0236 29.6733 17.8433 29.5773C17.663 29.4813 17.5036 29.3504 17.3745 29.1921C17.2454 29.0339 17.149 28.8515 17.0911 28.6556C17.0332 28.4597 17.0149 28.2543 17.0372 28.0513C17.0595 27.8482 17.1221 27.6517 17.2212 27.4731C18.3653 25.3282 18.9637 22.9347 18.9637 20.5038C18.9637 18.0729 18.3653 15.6794 17.2212 13.5346C17.1221 13.356 17.0595 13.1595 17.0372 12.9564C17.0149 12.7534 17.0332 12.548 17.0911 12.3521C17.149 12.1562 17.2454 11.9738 17.3745 11.8156C17.5036 11.6573 17.663 11.5264 17.8433 11.4304C18.0236 11.3344 18.2211 11.2752 18.4245 11.2564C18.6279 11.2375 18.833 11.2594 19.0279 11.3206C19.2227 11.3819 19.4034 11.4813 19.5594 11.6132C19.7154 11.745 19.8436 11.9066 19.9365 12.0885Z" fill="#877650" fill-opacity="0.2"/>
</g>
<rect x="2.5" y="2.5" width="36" height="36" rx="18" stroke="#877650" stroke-width="4"/>
<defs>
<clipPath id="clip0_3581_14342">
<rect x="0.5" y="0.5" width="40" height="40" rx="20" fill="white"/>
</clipPath>
</defs>
</svg>
