<svg width="79" height="80" viewBox="0 0 79 80" fill="none" xmlns="http://www.w3.org/2000/svg">
<path fill-rule="evenodd" clip-rule="evenodd" d="M0 31.9813C0 14.3185 14.3185 0 31.9813 0C49.6441 0 63.9626 14.3185 63.9626 31.9813C63.9626 33.8696 63.7989 35.7196 63.4851 37.5181L62.6672 33.7822C62.4001 32.5668 61.4497 31.5547 60.1471 31.3415C58.7997 31.117 57.414 31 55.9999 31C54.587 31 53.1999 31.1168 51.849 31.3515C50.5483 31.566 49.5993 32.5782 49.3324 33.7924L48.2706 38.6427C47.0505 39.1855 45.8958 39.8552 44.8257 40.632L43.4274 40.1877C44.0052 37.5037 44.2997 34.7564 44.2997 31.9907C44.2997 25.5779 42.7166 19.2644 39.6906 13.6105L39.7061 13.6013C39.3985 13.0255 38.8748 12.5954 38.2504 12.4057C37.6257 12.216 36.9514 12.2821 36.3755 12.5896C35.7998 12.897 35.3697 13.4207 35.1799 14.0452C34.9902 14.6698 35.0565 15.3442 35.3638 15.92C38.01 20.86 39.3945 26.3773 39.3945 31.9813C39.3945 34.3507 39.147 36.7045 38.6613 39.0058C37.9285 39.1077 37.2297 39.4641 36.7217 40.0831C35.9319 41.0388 35.2094 42.0541 34.5643 43.1293L34.5605 43.1355L34.1113 43.9097L34.1066 43.9182C33.5117 44.9911 32.9931 46.1059 32.562 47.2719L32.5614 47.2735C32.1116 48.4963 32.4992 49.8293 33.4291 50.6666L33.4315 50.6688L37.1055 54.0119C37.0368 54.6641 36.9999 55.3284 36.9999 56C36.9999 56.6736 37.037 57.3393 37.106 57.997L33.4315 61.3405L33.4291 61.3427C32.6936 62.005 32.2973 62.9774 32.3864 63.9601C32.2516 63.9618 32.1165 63.9626 31.9813 63.9626C14.3185 63.9626 0 49.6441 0 31.9813ZM24.5869 31.9813C24.5869 29.0079 23.8602 26.0794 22.4699 23.4509C22.1572 22.8884 21.6365 22.4707 21.0195 22.2876C20.4024 22.1045 19.7382 22.1706 19.1693 22.4715C18.6004 22.7725 18.172 23.2844 17.9762 23.8975C17.7804 24.5106 17.8326 25.1761 18.1217 25.7511C19.1512 27.6663 19.6901 29.8069 19.6901 31.9813C19.6901 34.1558 19.1512 36.2964 18.1217 38.2116C17.9627 38.4978 17.8623 38.8125 17.8266 39.1379C17.7908 39.4634 17.8204 39.7928 17.9135 40.1064C18.0066 40.4204 18.1614 40.7125 18.3689 40.9657C18.5763 41.2189 18.8323 41.4283 19.1216 41.5813C19.411 41.7343 19.728 41.8281 20.054 41.8572C20.3801 41.8862 20.7087 41.8497 21.0205 41.75C21.3324 41.6506 21.6212 41.4896 21.87 41.277C22.1189 41.0643 22.3229 40.8042 22.4699 40.5118C23.8602 37.8832 24.5869 34.9548 24.5869 31.9813ZM34.4441 31.9875C34.4441 27.2939 33.2888 22.6723 31.0802 18.5307C30.9317 18.2399 30.7268 17.9815 30.4773 17.7707C30.2276 17.5599 29.9387 17.4009 29.6272 17.3029C29.3156 17.205 28.9875 17.17 28.6624 17.2002C28.3372 17.2303 28.0212 17.3249 27.7331 17.4784C27.4447 17.6319 27.1899 17.8413 26.9834 18.0944C26.7768 18.3474 26.6228 18.6391 26.5302 18.9523C26.4376 19.2655 26.4083 19.594 26.444 19.9187C26.4797 20.2433 26.5797 20.5576 26.7382 20.8432C28.5678 24.2729 29.5246 28.1004 29.5246 31.9875C29.5246 35.8745 28.5678 39.7019 26.7382 43.1316C26.5797 43.4173 26.4797 43.7315 26.444 44.0564C26.4083 44.381 26.4376 44.7094 26.5302 45.0228C26.6228 45.3359 26.7768 45.6275 26.9834 45.8807C27.1899 46.1336 27.4447 46.3431 27.7331 46.4966C28.0212 46.6501 28.3372 46.7447 28.6624 46.7748C28.9875 46.8049 29.3156 46.77 29.6272 46.6719C29.9387 46.5741 30.2276 46.415 30.4773 46.2042C30.7268 45.9934 30.9317 45.7352 31.0802 45.4441C33.2888 41.3025 34.4441 36.6813 34.4441 31.9875Z" fill="white"/>
<path fill-rule="evenodd" clip-rule="evenodd" d="M77.8906 49.925C78.5374 49.3438 78.7906 48.4344 78.4906 47.6187L78.4999 47.6094C78.0874 46.4937 77.5906 45.425 77.0187 44.3937L76.5781 43.6344C75.9593 42.6031 75.2656 41.6281 74.5062 40.7094C73.9531 40.0438 73.0343 39.8094 72.2093 40.0719L66.9874 41.7313C65.7312 40.7656 64.3437 39.9594 62.8624 39.35L61.6906 33.9969C61.5031 33.1437 60.8468 32.4688 59.9843 32.3281C58.6906 32.1125 57.3593 32 55.9999 32C54.6406 32 53.3093 32.1125 52.0156 32.3375C51.1531 32.4781 50.4968 33.1531 50.3093 34.0062L49.1374 39.3594C47.6562 39.9688 46.2687 40.775 45.0124 41.7406L39.7906 40.0812C38.9655 39.8187 38.0468 40.0438 37.4937 40.7188C36.7343 41.6375 36.0406 42.6125 35.4218 43.6437L34.9812 44.4031C34.4093 45.4344 33.9124 46.5031 33.4999 47.6187C33.1999 48.4344 33.4531 49.3438 34.0999 49.925L38.1593 53.6187C38.0562 54.3969 37.9999 55.1937 37.9999 56C37.9999 56.8062 38.0562 57.6031 38.1593 58.3906L34.0999 62.0844C33.4531 62.6656 33.1999 63.575 33.4999 64.3906C33.9124 65.5062 34.4093 66.575 34.9812 67.6062L35.4218 68.3656C36.0406 69.3969 36.7343 70.3719 37.4937 71.2906C38.0468 71.9562 38.9655 72.1906 39.7906 71.9281L45.0031 70.2594C46.2593 71.225 47.6468 72.0312 49.1281 72.6406L50.2999 77.9937C50.4874 78.8469 51.1437 79.5219 52.0062 79.6625C53.2999 79.8781 54.6312 79.9906 55.9906 79.9906C57.3499 79.9906 58.6812 79.8781 59.9749 79.6625C60.8374 79.5219 61.4937 78.8469 61.6812 77.9937L62.8531 72.6406C64.3343 72.0312 65.7218 71.225 66.9781 70.2594L72.1999 71.9187C73.0249 72.1812 73.9437 71.9562 74.4968 71.2812C75.2562 70.3625 75.9499 69.3875 76.5687 68.3562L77.0093 67.5969C77.5812 66.5656 78.0781 65.4969 78.4906 64.3812C78.7906 63.5656 78.5374 62.6562 77.8906 62.075L73.8312 58.3812C73.9343 57.6031 73.9906 56.8062 73.9906 56C73.9906 55.1937 73.9343 54.3969 73.8312 53.6187L77.8906 49.925ZM61.3032 61.3033C59.8967 62.7098 57.9891 63.5 55.9999 63.5C54.0108 63.5 52.1031 62.7098 50.6966 61.3033C49.2901 59.8968 48.4999 57.9891 48.4999 56C48.4999 54.0109 49.2901 52.1032 50.6966 50.6967C52.1031 49.2902 54.0108 48.5 55.9999 48.5C57.9891 48.5 59.8967 49.2902 61.3032 50.6967C62.7098 52.1032 63.4999 54.0109 63.4999 56C63.4999 57.9891 62.7098 59.8968 61.3032 61.3033Z" fill="white"/>
</svg>
