<svg width="26" height="26" viewBox="0 0 26 26" fill="none" xmlns="http://www.w3.org/2000/svg">
<g clip-path="url(#clip0_3983_3686)">
<rect width="26" height="26" rx="13" fill="white"/>
<path d="M13 0C10.4288 0 7.91543 0.762437 5.77759 2.19089C3.63975 3.61935 1.97351 5.64967 0.989572 8.02511C0.0056327 10.4006 -0.251811 13.0144 0.249797 15.5362C0.751405 18.0579 1.98953 20.3743 3.80762 22.1924C5.6257 24.0105 7.94208 25.2486 10.4638 25.7502C12.9856 26.2518 15.5994 25.9944 17.9749 25.0104C20.3503 24.0265 22.3806 22.3602 23.8091 20.2224C25.2376 18.0846 26 15.5712 26 13C25.9964 9.5533 24.6256 6.24881 22.1884 3.81163C19.7512 1.37445 16.4467 0.00363977 13 0ZM13 24C10.8244 24 8.69767 23.3549 6.88873 22.1462C5.07979 20.9375 3.66989 19.2195 2.83733 17.2095C2.00477 15.1995 1.78693 12.9878 2.21137 10.854C2.6358 8.72021 3.68345 6.7602 5.22183 5.22182C6.76021 3.68345 8.72022 2.6358 10.854 2.21136C12.9878 1.78692 15.1995 2.00476 17.2095 2.83732C19.2195 3.66989 20.9375 5.07979 22.1462 6.88873C23.3549 8.69767 24 10.8244 24 13C23.9967 15.9164 22.8367 18.7123 20.7745 20.7745C18.7123 22.8367 15.9164 23.9967 13 24ZM9.13375 9.5325C9.69888 10.6009 9.9943 11.7913 9.9943 13C9.9943 14.2087 9.69888 15.3991 9.13375 16.4675C9.07398 16.5864 8.99109 16.6921 8.88992 16.7786C8.78875 16.865 8.67135 16.9304 8.5446 16.9709C8.41784 17.0114 8.28428 17.0262 8.15173 17.0144C8.01919 17.0026 7.89033 16.9645 7.77271 16.9023C7.65509 16.84 7.55107 16.755 7.46674 16.652C7.38242 16.5491 7.31948 16.4304 7.28163 16.3028C7.24377 16.1752 7.23176 16.0414 7.24629 15.9091C7.26082 15.7768 7.30161 15.6488 7.36625 15.5325C7.78475 14.754 8.00379 13.8839 8.00379 13C8.00379 12.1161 7.78475 11.246 7.36625 10.4675C7.24874 10.2337 7.22751 9.96325 7.30712 9.71404C7.38673 9.46481 7.56083 9.25672 7.7921 9.13438C8.02336 9.01204 8.29335 8.98521 8.54417 9.05964C8.79499 9.13406 9.00665 9.30382 9.13375 9.5325ZM16.1338 5.5325C17.3637 7.83073 18.0073 10.3971 18.0073 13.0037C18.0073 15.6104 17.3637 18.1768 16.1338 20.475C16.0006 20.6936 15.7887 20.8528 15.5417 20.9199C15.2946 20.987 15.0313 20.9567 14.8059 20.8355C14.5805 20.7142 14.4101 20.5111 14.33 20.268C14.2498 20.0249 14.2659 19.7603 14.375 19.5287C15.4506 17.5207 16.0134 15.278 16.0134 13C16.0134 10.722 15.4506 8.47932 14.375 6.47125C14.25 6.23719 14.2231 5.96308 14.3003 5.7092C14.3774 5.45532 14.5522 5.24248 14.7863 5.1175C15.0203 4.99252 15.2944 4.96563 15.5483 5.04275C15.8022 5.11988 16.015 5.2947 16.14 5.52875L16.1338 5.5325ZM12.6338 7.5325C13.5315 9.216 14.0011 11.0946 14.0011 13.0025C14.0011 14.9104 13.5315 16.789 12.6338 18.4725C12.5734 18.5907 12.49 18.6958 12.3886 18.7814C12.2872 18.8671 12.1698 18.9318 12.0431 18.9716C11.9165 19.0114 11.7831 19.0256 11.6509 19.0134C11.5187 19.0011 11.3903 18.9627 11.2731 18.9003C11.1559 18.8378 11.0524 18.7527 10.9684 18.6499C10.8845 18.547 10.8219 18.4285 10.7842 18.3011C10.7466 18.1738 10.7347 18.0403 10.7492 17.9083C10.7637 17.7763 10.8043 17.6486 10.8688 17.5325C11.6124 16.1384 12.0014 14.5826 12.0014 13.0025C12.0014 11.4224 11.6124 9.86664 10.8688 8.4725C10.8043 8.3564 10.7637 8.22865 10.7492 8.09668C10.7347 7.96471 10.7466 7.83117 10.7842 7.70385C10.8219 7.57654 10.8845 7.45799 10.9684 7.35513C11.0524 7.25227 11.1559 7.16715 11.2731 7.10474C11.3903 7.04233 11.5187 7.00388 11.6509 6.99164C11.7831 6.97939 11.9165 6.99359 12.0431 7.0334C12.1698 7.07322 12.2872 7.13786 12.3886 7.22355C12.49 7.30924 12.5734 7.41426 12.6338 7.5325Z" fill="#877650"/>
</g>
<rect x="1.3" y="1.3" width="23.4" height="23.4" rx="11.7" stroke="white" stroke-width="2.6"/>
<defs>
<clipPath id="clip0_3983_3686">
<rect width="26" height="26" rx="13" fill="white"/>
</clipPath>
</defs>
</svg>
