<svg width="31" height="31" viewBox="0 0 31 31" fill="none" xmlns="http://www.w3.org/2000/svg">
<g clip-path="url(#clip0_5096_13795)">
<rect width="24" height="24" rx="12" fill="white"/>
<path d="M12 0C9.62663 0 7.30655 0.703788 5.33316 2.02236C3.35977 3.34094 1.8217 5.21508 0.913451 7.4078C0.00519941 9.60051 -0.232441 12.0133 0.230582 14.3411C0.693605 16.6689 1.83649 18.807 3.51472 20.4853C5.19295 22.1635 7.33115 23.3064 9.65892 23.7694C11.9867 24.2324 14.3995 23.9948 16.5922 23.0865C18.7849 22.1783 20.6591 20.6402 21.9776 18.6668C23.2962 16.6934 24 14.3734 24 12C23.9966 8.81843 22.7313 5.76814 20.4816 3.51843C18.2319 1.26872 15.1816 0.00335979 12 0ZM12 22.1538C9.99176 22.1538 8.02862 21.5583 6.35883 20.4426C4.68904 19.3269 3.38759 17.7411 2.61907 15.8857C1.85055 14.0303 1.64947 11.9887 2.04126 10.0191C2.43305 8.04943 3.40011 6.24019 4.82015 4.82015C6.24019 3.40011 8.04943 2.43305 10.0191 2.04126C11.9887 1.64947 14.0303 1.85055 15.8857 2.61907C17.7411 3.38759 19.3269 4.68903 20.4426 6.35882C21.5583 8.02861 22.1538 9.99176 22.1538 12C22.1508 14.692 21.08 17.2729 19.1765 19.1765C17.2729 21.08 14.692 22.1508 12 22.1538ZM8.43116 8.79923C8.95281 9.78548 9.22551 10.8843 9.22551 12C9.22551 13.1157 8.95281 14.2145 8.43116 15.2008C8.37599 15.3105 8.29946 15.4081 8.20608 15.4879C8.1127 15.5677 8.00433 15.6281 7.88732 15.6654C7.77032 15.7028 7.64703 15.7165 7.52468 15.7056C7.40233 15.6947 7.28339 15.6595 7.17481 15.6021C7.06624 15.5447 6.97022 15.4661 6.89238 15.3711C6.81454 15.2761 6.75644 15.1665 6.7215 15.0487C6.68656 14.931 6.67547 14.8074 6.68889 14.6853C6.7023 14.5632 6.73995 14.4451 6.79962 14.3377C7.18592 13.6191 7.38811 12.8159 7.38811 12C7.38811 11.1841 7.18592 10.3809 6.79962 9.66231C6.69114 9.44654 6.67155 9.19685 6.74503 8.9668C6.81852 8.73675 6.97923 8.54466 7.1927 8.43174C7.40618 8.31881 7.6554 8.29404 7.88693 8.36274C8.11845 8.43144 8.31383 8.58814 8.43116 8.79923ZM14.8927 5.10692C16.0281 7.22837 16.6221 9.59731 16.6221 12.0035C16.6221 14.4096 16.0281 16.7786 14.8927 18.9C14.7698 19.1018 14.5742 19.2488 14.3462 19.3107C14.1181 19.3726 13.875 19.3447 13.667 19.2327C13.4589 19.1208 13.3017 18.9333 13.2277 18.7089C13.1537 18.4845 13.1686 18.2403 13.2692 18.0265C14.2621 16.1729 14.7816 14.1027 14.7816 12C14.7816 9.89725 14.2621 7.82707 13.2692 5.97346C13.1539 5.75741 13.129 5.50438 13.2002 5.27003C13.2714 5.03568 13.4328 4.83921 13.6488 4.72385C13.8649 4.60848 14.1179 4.58366 14.3523 4.65485C14.5866 4.72604 14.7831 4.88741 14.8985 5.10346L14.8927 5.10692ZM11.6619 6.95308C12.4906 8.50708 12.9241 10.2412 12.9241 12.0023C12.9241 13.7635 12.4906 15.4975 11.6619 17.0515C11.6062 17.1607 11.5293 17.2576 11.4357 17.3367C11.342 17.4158 11.2336 17.4755 11.1167 17.5122C10.9998 17.549 10.8767 17.5621 10.7547 17.5508C10.6327 17.5395 10.5141 17.504 10.406 17.4464C10.2978 17.3888 10.2022 17.3102 10.1247 17.2153C10.0472 17.1203 9.98942 17.0109 9.95467 16.8934C9.91993 16.7758 9.90893 16.6526 9.92233 16.5308C9.93572 16.4089 9.97324 16.291 10.0327 16.1838C10.7192 14.8969 11.0782 13.4608 11.0782 12.0023C11.0782 10.5438 10.7192 9.10766 10.0327 7.82077C9.97324 7.7136 9.93572 7.59567 9.92233 7.47386C9.90893 7.35204 9.91993 7.22877 9.95467 7.11125C9.98942 6.99373 10.0472 6.8843 10.1247 6.78935C10.2022 6.6944 10.2978 6.61583 10.406 6.55822C10.5141 6.50062 10.6327 6.46512 10.7547 6.45382C10.8767 6.44251 10.9998 6.45562 11.1167 6.49237C11.2336 6.52913 11.342 6.58879 11.4357 6.66789C11.5293 6.74699 11.6062 6.84394 11.6619 6.95308Z" fill="#877650"/>
</g>
<rect x="1.2" y="1.2" width="21.6" height="21.6" rx="10.8" stroke="white" stroke-width="2.4"/>
<circle cx="21" cy="21" r="3" fill="#877650"/>
<path d="M14.0601 15.2695L13.6747 14.951C13.3745 15.3142 13.0997 15.7002 12.8544 16.1092L12.8543 16.1091L12.8506 16.1155L12.6854 16.4002L12.6853 16.4002L12.6806 16.4087C12.4546 16.8162 12.2575 17.24 12.0934 17.6836L12.0931 17.6844C11.9058 18.1938 12.0679 18.7466 12.4519 19.0926C12.4524 19.093 12.4528 19.0934 12.4532 19.0938L13.7838 20.3046C13.7617 20.533 13.7499 20.7653 13.7499 21C13.7499 21.2356 13.7618 21.4686 13.784 21.6988L12.4532 22.9097C12.4528 22.9101 12.4523 22.9105 12.4519 22.9109C12.0679 23.2569 11.9058 23.8097 12.0931 24.3191L12.0934 24.3199C12.2575 24.7635 12.4546 25.1873 12.6806 25.5948L12.6805 25.5949L12.6854 25.6033L12.8506 25.888L12.8506 25.8881L12.8544 25.8944C13.0997 26.3033 13.3745 26.6893 13.6747 27.0525L13.6755 27.0535C14.0231 27.4719 14.5851 27.6047 15.073 27.4495L15.0738 27.4492L16.7846 26.9015C17.1611 27.1699 17.5645 27.4037 17.9892 27.5971L18.374 29.3546L18.3741 29.355C18.4842 29.8562 18.8776 30.278 19.4213 30.3668C19.9331 30.4521 20.4594 30.4965 20.9964 30.4965C21.5333 30.4965 22.0596 30.4521 22.5715 30.3668C23.1152 30.278 23.5086 29.8562 23.6187 29.355L23.6188 29.3546L24.0035 27.5971C24.4285 27.4036 24.8321 27.1697 25.2087 26.9011L26.9233 27.446C27.4069 27.5998 27.9712 27.4752 28.3216 27.049C28.6218 26.6858 28.8966 26.2998 29.1419 25.8908L29.142 25.8909L29.1457 25.8845L29.3109 25.5998L29.311 25.5998L29.3157 25.5913C29.5417 25.1838 29.7389 24.7599 29.9029 24.3164L29.9032 24.3156C30.0905 23.8062 29.9284 23.2534 29.5444 22.9074C29.5439 22.907 29.5435 22.9066 29.5431 22.9062L28.2125 21.6954C28.2346 21.467 28.2464 21.2347 28.2464 21C28.2464 20.7653 28.2346 20.533 28.2125 20.3046L29.5431 19.0938C29.5435 19.0934 29.5439 19.093 29.5443 19.0927C29.8447 18.822 30.0094 18.4249 29.9772 18.0209L30.0175 17.9806L29.9064 17.6801C29.7424 17.2365 29.5452 16.8127 29.3192 16.4052L29.3193 16.4051L29.3144 16.3967L29.1492 16.112L29.1492 16.1119L29.1455 16.1056C28.9001 15.6967 28.6253 15.3107 28.3252 14.9475L28.3243 14.9465C27.9767 14.5282 27.4148 14.3953 26.927 14.5504C26.9269 14.5505 26.9269 14.5505 26.9268 14.5505L25.2123 15.0953C24.8356 14.8268 24.432 14.5929 24.0071 14.3993L23.6223 12.6419L23.6222 12.6415C23.5122 12.1407 23.1193 11.7192 22.5763 11.6298C22.064 11.5445 21.5373 11.5 20.9999 11.5C20.4634 11.5 19.9364 11.5443 19.4227 11.6335C18.8801 11.7231 18.4876 12.1445 18.3776 12.645L18.3775 12.6454L17.9928 14.4029C17.5678 14.5964 17.1642 14.8303 16.7876 15.0989L15.073 14.554C15.073 14.554 15.0729 14.554 15.0729 14.554C15.0729 14.554 15.0728 14.554 15.0728 14.5539C14.5887 14.4 14.0236 14.5252 13.6733 14.9526L14.0601 15.2695ZM14.0601 15.2695C14.2675 15.0164 14.612 14.932 14.9214 15.0305L12.5624 17.857C12.7171 17.4387 12.9034 17.0379 13.1179 16.6512L13.2831 16.3664C13.5151 15.9797 13.7753 15.6141 14.0601 15.2695ZM27.0784 15.027C27.3878 14.9285 27.7323 15.0164 27.9398 15.266C28.2245 15.6105 28.4847 15.9762 28.7167 16.3629L28.8819 16.6477L27.0784 15.027ZM22.6351 22.6352C22.2014 23.0689 21.6132 23.3125 20.9999 23.3125C20.3866 23.3125 19.7984 23.0689 19.3647 22.6352C18.931 22.2015 18.6874 21.6133 18.6874 21C18.6874 20.3867 18.931 19.7985 19.3647 19.3648C19.7984 18.9311 20.3866 18.6875 20.9999 18.6875C21.6132 18.6875 22.2014 18.9311 22.6351 19.3648C23.0688 19.7985 23.3124 20.3867 23.3124 21C23.3124 21.6133 23.0688 22.2015 22.6351 22.6352Z" fill="white" stroke="#877650"/>
<defs>
<clipPath id="clip0_5096_13795">
<rect width="24" height="24" rx="12" fill="white"/>
</clipPath>
</defs>
</svg>
