<svg width="26" height="23" viewBox="0 0 26 23" fill="none" xmlns="http://www.w3.org/2000/svg">
<path d="M22.2188 22.3438L12.0469 22.332C11.5859 22.332 11.1484 22.2812 10.7344 22.1797C10.3281 22.0859 9.9375 21.9336 9.5625 21.7227C9.19531 21.5117 8.85156 21.2383 8.53125 20.9023L1.61719 13.7656C1.35938 13.5 1.14844 13.2461 0.984375 13.0039C0.820312 12.7539 0.699219 12.5078 0.621094 12.2656C0.542969 12.0234 0.503906 11.7812 0.503906 11.5391C0.503906 11.2891 0.542969 11.0469 0.621094 10.8125C0.699219 10.5703 0.820312 10.3242 0.984375 10.0742C1.14844 9.82422 1.35938 9.57031 1.61719 9.3125L8.51953 2.14062C8.83984 1.80469 9.18359 1.53516 9.55078 1.33203C9.92578 1.12891 10.3164 0.984375 10.7227 0.898438C11.1367 0.8125 11.5742 0.769531 12.0352 0.769531H22.2188C23.4453 0.769531 24.3633 1.07422 24.9727 1.68359C25.5898 2.28516 25.8984 3.19141 25.8984 4.40234V18.7109C25.8984 19.9219 25.5898 20.8281 24.9727 21.4297C24.3633 22.0391 23.4453 22.3438 22.2188 22.3438ZM22.1953 20.457C22.7812 20.457 23.2305 20.3047 23.543 20C23.8555 19.6875 24.0117 19.2266 24.0117 18.6172V4.49609C24.0117 3.88672 23.8555 3.42969 23.543 3.125C23.2305 2.8125 22.7812 2.65625 22.1953 2.65625H12C11.5625 2.65625 11.1836 2.70703 10.8633 2.80859C10.5508 2.91016 10.2422 3.11719 9.9375 3.42969L3.08203 10.543C2.73828 10.918 2.56641 11.25 2.56641 11.5391C2.56641 11.6875 2.60156 11.8398 2.67188 11.9961C2.75 12.1445 2.88672 12.3203 3.08203 12.5234L9.94922 19.6133C10.2539 19.9258 10.5625 20.1445 10.875 20.2695C11.1875 20.3945 11.5664 20.457 12.0117 20.457H22.1953ZM11.3555 16.5078C11.0977 16.5078 10.875 16.4141 10.6875 16.2266C10.5078 16.0391 10.418 15.8164 10.418 15.5586C10.418 15.3008 10.5117 15.082 10.6992 14.9023L14.0273 11.5625L10.6992 8.22266C10.5117 8.04297 10.418 7.82422 10.418 7.56641C10.418 7.30859 10.5078 7.08984 10.6875 6.91016C10.875 6.73047 11.0977 6.64062 11.3555 6.64062C11.6211 6.64062 11.8398 6.73438 12.0117 6.92188L15.3516 10.25L18.7266 6.91016C18.9141 6.71484 19.1289 6.61719 19.3711 6.61719C19.6289 6.61719 19.8477 6.71094 20.0273 6.89844C20.2148 7.07812 20.3086 7.29688 20.3086 7.55469C20.3086 7.80469 20.2148 8.02344 20.0273 8.21094L16.6875 11.5625L20.0156 14.8906C20.2031 15.0781 20.2969 15.3008 20.2969 15.5586C20.2969 15.8164 20.2031 16.0391 20.0156 16.2266C19.8359 16.4141 19.6172 16.5078 19.3594 16.5078C19.1016 16.5078 18.8789 16.4102 18.6914 16.2148L15.3516 12.8867L12.0352 16.2148C11.8555 16.4102 11.6289 16.5078 11.3555 16.5078Z" fill="#333333"/>
</svg>
