<svg width="26" height="23" viewBox="0 0 26 23" fill="none" xmlns="http://www.w3.org/2000/svg">
<path d="M9.37891 22.3438C8.55859 22.3438 7.93359 22.1172 7.50391 21.6641C7.07422 21.2188 6.85938 20.6094 6.85938 19.8359V14.5859H2.08984C1.61328 14.5859 1.21094 14.4531 0.882812 14.1875C0.554688 13.9141 0.390625 13.5547 0.390625 13.1094C0.390625 12.8359 0.449219 12.5938 0.566406 12.3828C0.691406 12.1719 0.867188 11.9531 1.09375 11.7266L11.5469 1.30859C11.7734 1.07422 12.0039 0.898438 12.2383 0.78125C12.4805 0.65625 12.7305 0.59375 12.9883 0.59375C13.2539 0.59375 13.5039 0.65625 13.7383 0.78125C13.9805 0.898438 14.2148 1.07422 14.4414 1.30859L24.8945 11.7266C25.1055 11.9375 25.2734 12.1523 25.3984 12.3711C25.5312 12.5898 25.5977 12.8359 25.5977 13.1094C25.5977 13.5547 25.4297 13.9141 25.0938 14.1875C24.7656 14.4531 24.3633 14.5859 23.8867 14.5859H19.1289V19.8359C19.1289 20.6094 18.9141 21.2188 18.4844 21.6641C18.0547 22.1172 17.4297 22.3438 16.6094 22.3438H9.37891ZM9.56641 20.5273H16.4219C16.6328 20.5273 16.8086 20.457 16.9492 20.3164C17.0977 20.1758 17.1719 20 17.1719 19.7891V13.2148C17.1719 12.9492 17.3008 12.8164 17.5586 12.8164H22.9609C23.0469 12.8164 23.0898 12.7852 23.0898 12.7227C23.0898 12.6758 23.0664 12.6289 23.0195 12.582L13.2344 2.85547C13.1953 2.80859 13.1562 2.77734 13.1172 2.76172C13.0781 2.74609 13.0352 2.73828 12.9883 2.73828C12.9492 2.73828 12.9102 2.74609 12.8711 2.76172C12.832 2.77734 12.7891 2.80859 12.7422 2.85547L2.95703 12.582C2.91016 12.6289 2.88672 12.6758 2.88672 12.7227C2.88672 12.7852 2.92969 12.8164 3.01562 12.8164H8.42969C8.6875 12.8164 8.81641 12.9492 8.81641 13.2148V19.7891C8.81641 20.0078 8.88672 20.1836 9.02734 20.3164C9.16797 20.457 9.34766 20.5273 9.56641 20.5273Z" fill="#333333"/>
</svg>
