<svg width="80" height="78" viewBox="0 0 80 78" fill="none" xmlns="http://www.w3.org/2000/svg">
<path fill-rule="evenodd" clip-rule="evenodd" d="M50.7302 30.9221L50.3163 32.8128H36.5594V39.2079C36.2724 39.6249 35.9975 40.0518 35.7355 40.4884L35.7331 40.4924L35.2817 41.2704L35.2787 41.2758C34.6852 42.3459 34.1686 43.4568 33.7393 44.618L33.7389 44.619C33.3407 45.7015 33.6818 46.8893 34.5151 47.6392L34.5167 47.6407L38.3812 51.1571C38.2994 51.8658 38.2553 52.5892 38.2553 53.3207C38.2553 54.0537 38.2996 54.7781 38.3815 55.4936L36.2619 57.4223H8.12432C3.64325 57.4223 0 53.7437 0 49.2192V8.20319C0 3.67862 3.64325 0 8.12432 0H56.8702C61.3513 0 64.9945 3.67862 64.9945 8.20319V36.1886C64.8638 36.1284 64.7322 36.0697 64.5999 36.0125L63.4836 30.9131C63.2436 29.8209 62.3935 28.9243 61.2427 28.7362C59.8993 28.5124 58.5174 28.3957 57.1068 28.3957C55.697 28.3957 54.3143 28.5123 52.9686 28.7461C51.819 28.935 50.9701 29.8306 50.7302 30.9221ZM56.8702 8.20319V24.6096H36.5594V8.20319H56.8702ZM28.4351 24.6096H8.12432V8.20319H28.4351V24.6096ZM8.12432 32.8128H28.4351V49.2192H8.12432V32.8128Z" fill="white"/>
<path fill-rule="evenodd" clip-rule="evenodd" d="M79.2657 47.1713C79.9205 46.5829 80.1767 45.6624 79.873 44.8368L79.8825 44.8273C79.465 43.698 78.962 42.6162 78.3831 41.5723L77.9371 40.8036C77.3108 39.7597 76.6085 38.7728 75.8399 37.8428C75.2799 37.169 74.3499 36.9317 73.5148 37.1975L68.229 38.8772C66.9573 37.8997 65.5528 37.0836 64.0534 36.4667L62.8672 31.048C62.6774 30.1844 62.0131 29.5012 61.14 29.3588C59.8304 29.1406 58.4829 29.0267 57.1068 29.0267C55.7308 29.0267 54.3833 29.1406 53.0737 29.3683C52.2006 29.5107 51.5363 30.1939 51.3465 31.0575L50.1603 36.4762C48.6609 37.0931 47.2564 37.9092 45.9847 38.8867L40.6989 37.2069C39.8638 36.9412 38.9337 37.169 38.3738 37.8523C37.6052 38.7823 36.9029 39.7692 36.2766 40.8131L35.8306 41.5818C35.2517 42.6257 34.7487 43.7075 34.3312 44.8368C34.0275 45.6624 34.2837 46.5829 34.9385 47.1713L39.0476 50.9103C38.9432 51.698 38.8863 52.5046 38.8863 53.3207C38.8863 54.1369 38.9432 54.9435 39.0476 55.7407L34.9385 59.4797C34.2837 60.068 34.0275 60.9886 34.3312 61.8142C34.7487 62.9435 35.2517 64.0253 35.8306 65.0692L36.2766 65.8379C36.9029 66.8818 37.6052 67.8687 38.3738 68.7987C38.9337 69.4725 39.8638 69.7098 40.6989 69.444L45.9752 67.7548C47.2469 68.7323 48.6514 69.5484 50.1508 70.1653L51.337 75.584C51.5268 76.4476 52.1911 77.1308 53.0642 77.2732C54.3738 77.4914 55.7213 77.6053 57.0974 77.6053C58.4734 77.6053 59.8209 77.4914 61.1306 77.2732C62.0036 77.1308 62.6679 76.4476 62.8577 75.584L64.0439 70.1653C65.5433 69.5484 66.9478 68.7323 68.2195 67.7548L73.5053 69.4345C74.3404 69.7003 75.2705 69.4725 75.8304 68.7892C76.599 67.8592 77.3013 66.8723 77.9276 65.8284L78.3736 65.0597C78.9525 64.0158 79.4555 62.934 79.873 61.8047C80.1767 60.9791 79.9205 60.0586 79.2657 59.4702L75.1566 55.7312C75.261 54.9435 75.3179 54.1369 75.3179 53.3207C75.3179 52.5046 75.261 51.698 75.1566 50.9103L79.2657 47.1713ZM62.4751 58.689C61.0514 60.1128 59.1203 60.9126 57.1068 60.9126C55.0933 60.9126 53.1623 60.1128 51.7386 58.689C50.3148 57.2653 49.5149 55.3342 49.5149 53.3207C49.5149 51.3073 50.3148 49.3762 51.7386 47.9525C53.1623 46.5287 55.0933 45.7289 57.1068 45.7289C59.1203 45.7289 61.0514 46.5287 62.4751 47.9525C63.8989 49.3762 64.6987 51.3073 64.6987 53.3207C64.6987 55.3342 63.8989 57.2653 62.4751 58.689Z" fill="white"/>
</svg>
