<svg width="24" height="19" viewBox="0 0 24 19" fill="none" xmlns="http://www.w3.org/2000/svg">
<path d="M12.7902 13.3L14.2202 11.868C15.3588 10.7286 15.9984 9.18376 15.9984 7.57298C15.9984 5.9622 15.3588 4.41734 14.2202 3.27798C13.6567 2.71416 12.9877 2.26689 12.2514 1.96174C11.515 1.65658 10.7257 1.49951 9.92866 1.49951C9.13158 1.49951 8.34231 1.65658 7.60595 1.96174C6.8696 2.26689 6.20059 2.71416 5.63716 3.27798L2.77616 6.14298C1.94887 6.97236 1.37897 8.02321 1.13509 9.16899C0.891206 10.3148 0.983743 11.5066 1.40155 12.601C1.81937 13.6954 2.54464 14.6457 3.49003 15.3375C4.43543 16.0292 5.56064 16.4329 6.73016 16.5" stroke="#22798C" stroke-width="1.5" stroke-linecap="round"/>
<path d="M11.2043 5.69976L9.77433 7.13176C8.63571 8.27112 7.99609 9.81598 7.99609 11.4268C7.99609 13.0375 8.63571 14.5824 9.77433 15.7218C10.3378 16.2856 11.0068 16.7328 11.7431 17.038C12.4795 17.3432 13.2687 17.5002 14.0658 17.5002C14.8629 17.5002 15.6522 17.3432 16.3885 17.038C17.1249 16.7328 17.7939 16.2856 18.3573 15.7218L21.2183 12.8578C22.0459 12.0284 22.6161 10.9775 22.8602 9.83155C23.1043 8.68561 23.0118 7.49355 22.594 6.39895C22.1761 5.30435 21.4507 4.3539 20.5051 3.6621C19.5595 2.97029 18.4341 2.56664 17.2643 2.49976" stroke="#22798C" stroke-width="1.5" stroke-linecap="round"/>
</svg>
