<svg width="31" height="31" viewBox="0 0 31 31" fill="none" xmlns="http://www.w3.org/2000/svg">
<path fill-rule="evenodd" clip-rule="evenodd" d="M9.67383 2.0625H21.9251C23.1963 2.0625 24.0713 2.0625 24.8076 2.3175C25.4957 2.56051 26.1185 2.95897 26.6275 3.48189C27.1366 4.0048 27.5182 4.63809 27.7426 5.3325C27.9876 6.07875 27.9863 6.96625 27.9863 8.2825V25.9675C27.9863 27.8 25.8276 28.89 24.4063 27.5887C24.3607 27.5451 24.3001 27.5208 24.237 27.5208C24.1738 27.5208 24.1132 27.5451 24.0676 27.5887L23.4626 28.1413C22.3026 29.2038 20.5451 29.2038 19.3851 28.1413C19.1751 27.9452 18.8986 27.8362 18.6113 27.8362C18.3241 27.8362 18.0475 27.9452 17.8376 28.1413C16.6776 29.2038 14.9201 29.2038 13.7601 28.1413C13.5501 27.9452 13.2736 27.8362 12.9863 27.8362C12.6991 27.8362 12.4225 27.9452 12.2126 28.1413C11.0526 29.2038 9.29508 29.2038 8.13508 28.1413L7.53133 27.5887C7.48567 27.5448 7.42473 27.5202 7.36133 27.5202C7.29792 27.5202 7.23699 27.5448 7.19133 27.5887C5.77008 28.8887 3.61133 27.8 3.61133 25.9675V8.28375C3.61133 6.96625 3.61133 6.07875 3.85508 5.3325C4.07941 4.63805 4.46095 4.00472 4.97001 3.48179C5.47906 2.95886 6.10191 2.56043 6.79008 2.3175C7.52758 2.06125 8.40258 2.0625 9.67383 2.0625ZM9.85508 3.9375C8.32883 3.9375 7.80258 3.95 7.40508 4.08875C6.98975 4.23726 6.61423 4.47949 6.3077 4.79665C6.00116 5.11381 5.77185 5.49735 5.63758 5.9175C5.49883 6.34 5.48758 6.8975 5.48758 8.4625V25.9675C5.48758 26.1175 5.56133 26.2075 5.65508 26.2512C5.69785 26.2716 5.74554 26.2794 5.79258 26.2737C5.84332 26.2656 5.89016 26.2415 5.92633 26.205C6.31747 25.8449 6.82968 25.6451 7.36133 25.6451C7.89297 25.6451 8.40519 25.8449 8.79633 26.205L9.40008 26.7575C9.61003 26.9535 9.88658 27.0626 10.1738 27.0626C10.4611 27.0626 10.7376 26.9535 10.9476 26.7575C11.5031 26.2456 12.2309 25.9615 12.9863 25.9615C13.7417 25.9615 14.4695 26.2456 15.0251 26.7575C15.235 26.9535 15.5116 27.0626 15.7988 27.0626C16.0861 27.0626 16.3626 26.9535 16.5726 26.7575C17.1281 26.2456 17.8559 25.9615 18.6113 25.9615C19.3667 25.9615 20.0945 26.2456 20.6501 26.7575C20.86 26.9535 21.1366 27.0626 21.4238 27.0626C21.7111 27.0626 21.9876 26.9535 22.1976 26.7575L22.8013 26.205C23.1925 25.8449 23.7047 25.6451 24.2363 25.6451C24.768 25.6451 25.2802 25.8449 25.6713 26.205C25.7251 26.255 25.7713 26.27 25.8063 26.2737C25.853 26.2792 25.9002 26.2714 25.9426 26.2512C26.0363 26.2075 26.1113 26.1163 26.1113 25.9675V8.4625C26.1113 6.8975 26.0988 6.34 25.9613 5.91625C25.8266 5.49607 25.5969 5.11261 25.2899 4.79566C24.9829 4.47871 24.607 4.23681 24.1913 4.08875C23.7951 3.95125 23.2688 3.93875 21.7426 3.93875L9.85508 3.9375ZM19.5501 9.8C19.6421 9.88201 19.7171 9.98136 19.7707 10.0924C19.8242 10.2034 19.8554 10.3239 19.8624 10.4469C19.8693 10.57 19.852 10.6933 19.8112 10.8096C19.7705 10.926 19.7073 11.0331 19.6251 11.125L15.1601 16.125C15.0721 16.2235 14.9644 16.3023 14.8438 16.3563C14.7233 16.4103 14.5928 16.4382 14.4607 16.4382C14.3286 16.4382 14.1981 16.4103 14.0776 16.3563C13.957 16.3023 13.8493 16.2235 13.7613 16.125L11.9763 14.125C11.8123 13.9394 11.7283 13.6965 11.7428 13.4492C11.7573 13.2019 11.8691 12.9704 12.0537 12.8053C12.2383 12.6402 12.4808 12.5548 12.7281 12.5679C12.9755 12.5809 13.2076 12.6913 13.3738 12.875L14.4613 14.0925L18.2263 9.87625C18.3082 9.78431 18.4074 9.70942 18.5183 9.65583C18.6292 9.60224 18.7495 9.57101 18.8724 9.56393C18.9953 9.55685 19.1184 9.57406 19.2347 9.61456C19.351 9.65506 19.4582 9.71808 19.5501 9.8ZM9.23758 19.875C9.23758 19.6264 9.33635 19.3879 9.51217 19.2121C9.68798 19.0363 9.92644 18.9375 10.1751 18.9375H21.4251C21.6737 18.9375 21.9122 19.0363 22.088 19.2121C22.2638 19.3879 22.3626 19.6264 22.3626 19.875C22.3626 20.1236 22.2638 20.3621 22.088 20.5379C21.9122 20.7137 21.6737 20.8125 21.4251 20.8125H10.1751C9.92644 20.8125 9.68798 20.7137 9.51217 20.5379C9.33635 20.3621 9.23758 20.1236 9.23758 19.875Z" fill="#BDBDBD"/>
</svg>
