<svg width="31" height="30" viewBox="0 0 31 30" fill="none" xmlns="http://www.w3.org/2000/svg">
<path fill-rule="evenodd" clip-rule="evenodd" d="M9.67383 1.5625H21.9251C23.1963 1.5625 24.0713 1.5625 24.8076 1.8175C25.4957 2.06051 26.1185 2.45897 26.6275 2.98189C27.1366 3.5048 27.5182 4.13809 27.7426 4.8325C27.9876 5.57875 27.9863 6.46625 27.9863 7.7825V25.4675C27.9863 27.3 25.8276 28.39 24.4063 27.0887C24.3607 27.0451 24.3001 27.0208 24.237 27.0208C24.1738 27.0208 24.1132 27.0451 24.0676 27.0887L23.4626 27.6413C22.3026 28.7038 20.5451 28.7038 19.3851 27.6413C19.1751 27.4452 18.8986 27.3362 18.6113 27.3362C18.3241 27.3362 18.0475 27.4452 17.8376 27.6413C16.6776 28.7038 14.9201 28.7038 13.7601 27.6413C13.5501 27.4452 13.2736 27.3362 12.9863 27.3362C12.6991 27.3362 12.4225 27.4452 12.2126 27.6413C11.0526 28.7038 9.29508 28.7038 8.13508 27.6413L7.53133 27.0887C7.48567 27.0448 7.42473 27.0202 7.36133 27.0202C7.29792 27.0202 7.23699 27.0448 7.19133 27.0887C5.77008 28.3887 3.61133 27.3 3.61133 25.4675V7.78375C3.61133 6.46625 3.61133 5.57875 3.85508 4.8325C4.07941 4.13805 4.46095 3.50472 4.97001 2.98179C5.47906 2.45886 6.10191 2.06043 6.79008 1.8175C7.52758 1.56125 8.40258 1.5625 9.67383 1.5625ZM9.85508 3.4375C8.32883 3.4375 7.80258 3.45 7.40508 3.58875C6.98975 3.73726 6.61423 3.97949 6.3077 4.29665C6.00116 4.61381 5.77185 4.99735 5.63758 5.4175C5.49883 5.84 5.48758 6.3975 5.48758 7.9625V25.4675C5.48758 25.6175 5.56133 25.7075 5.65508 25.7512C5.69785 25.7716 5.74554 25.7794 5.79258 25.7737C5.84332 25.7656 5.89016 25.7415 5.92633 25.705C6.31747 25.3449 6.82968 25.1451 7.36133 25.1451C7.89297 25.1451 8.40519 25.3449 8.79633 25.705L9.40008 26.2575C9.61003 26.4535 9.88658 26.5626 10.1738 26.5626C10.4611 26.5626 10.7376 26.4535 10.9476 26.2575C11.5031 25.7456 12.2309 25.4615 12.9863 25.4615C13.7417 25.4615 14.4695 25.7456 15.0251 26.2575C15.235 26.4535 15.5116 26.5626 15.7988 26.5626C16.0861 26.5626 16.3626 26.4535 16.5726 26.2575C17.1281 25.7456 17.8559 25.4615 18.6113 25.4615C19.3667 25.4615 20.0945 25.7456 20.6501 26.2575C20.86 26.4535 21.1366 26.5626 21.4238 26.5626C21.7111 26.5626 21.9876 26.4535 22.1976 26.2575L22.8013 25.705C23.1925 25.3449 23.7047 25.1451 24.2363 25.1451C24.768 25.1451 25.2802 25.3449 25.6713 25.705C25.7251 25.755 25.7713 25.77 25.8063 25.7737C25.853 25.7792 25.9002 25.7714 25.9426 25.7512C26.0363 25.7075 26.1113 25.6163 26.1113 25.4675V7.9625C26.1113 6.3975 26.0988 5.84 25.9613 5.41625C25.8266 4.99607 25.5969 4.61261 25.2899 4.29566C24.9829 3.97871 24.607 3.73681 24.1913 3.58875C23.7951 3.45125 23.2688 3.43875 21.7426 3.43875L9.85508 3.4375ZM19.5501 9.3C19.6421 9.38201 19.7171 9.48136 19.7707 9.59237C19.8242 9.70338 19.8554 9.82387 19.8624 9.94695C19.8693 10.07 19.852 10.1933 19.8112 10.3096C19.7705 10.426 19.7073 10.5331 19.6251 10.625L15.1601 15.625C15.0721 15.7235 14.9644 15.8023 14.8438 15.8563C14.7233 15.9103 14.5928 15.9382 14.4607 15.9382C14.3286 15.9382 14.1981 15.9103 14.0776 15.8563C13.957 15.8023 13.8493 15.7235 13.7613 15.625L11.9763 13.625C11.8123 13.4394 11.7283 13.1965 11.7428 12.9492C11.7573 12.7019 11.8691 12.4704 12.0537 12.3053C12.2383 12.1402 12.4808 12.0548 12.7281 12.0679C12.9755 12.0809 13.2076 12.1913 13.3738 12.375L14.4613 13.5925L18.2263 9.37625C18.3082 9.28431 18.4074 9.20942 18.5183 9.15583C18.6292 9.10224 18.7495 9.07101 18.8724 9.06393C18.9953 9.05685 19.1184 9.07406 19.2347 9.11456C19.351 9.15506 19.4582 9.21808 19.5501 9.3ZM9.23758 19.375C9.23758 19.1264 9.33635 18.8879 9.51217 18.7121C9.68798 18.5363 9.92644 18.4375 10.1751 18.4375H21.4251C21.6737 18.4375 21.9122 18.5363 22.088 18.7121C22.2638 18.8879 22.3626 19.1264 22.3626 19.375C22.3626 19.6236 22.2638 19.8621 22.088 20.0379C21.9122 20.2137 21.6737 20.3125 21.4251 20.3125H10.1751C9.92644 20.3125 9.68798 20.2137 9.51217 20.0379C9.33635 19.8621 9.23758 19.6236 9.23758 19.375Z" fill="#22798C"/>
</svg>
