<svg width="31" height="31" viewBox="0 0 31 31" fill="none" xmlns="http://www.w3.org/2000/svg">
<path fill-rule="evenodd" clip-rule="evenodd" d="M10.5309 5.8125H16.9184C18.6271 5.8125 20.0059 5.8125 21.0896 5.95875C22.2146 6.10875 23.1621 6.43375 23.9146 7.185C24.6071 7.87875 24.9359 8.7375 25.1021 9.7475C26.1134 9.9125 26.9709 10.2425 27.6646 10.935C28.4171 11.6875 28.7396 12.635 28.8921 13.76C29.0371 14.8437 29.0371 16.2225 29.0371 17.9312V18.0688C29.0371 19.7775 29.0371 21.1563 28.8921 22.24C28.7409 23.365 28.4171 24.3125 27.6646 25.065C26.9121 25.8175 25.9646 26.14 24.8396 26.2925C23.7559 26.4375 22.3771 26.4375 20.6684 26.4375H14.2809C12.5721 26.4375 11.1934 26.4375 10.1109 26.2925C8.98586 26.14 8.03836 25.8175 7.28586 25.065C6.59211 24.3713 6.26336 23.5125 6.09836 22.5025C5.08586 22.3362 4.22836 22.0075 3.53586 21.315C2.78211 20.5625 2.45961 19.615 2.30836 18.49C2.16211 17.4063 2.16211 16.0275 2.16211 14.3188V14.1812C2.16211 12.4725 2.16211 11.0937 2.30836 10.01C2.45836 8.885 2.78336 7.9375 3.53461 7.185C4.28711 6.4325 5.23461 6.11 6.35961 5.95875C7.44336 5.8125 8.82211 5.8125 10.5309 5.8125ZM8.04336 22.665C8.17586 23.1675 8.36211 23.49 8.61086 23.7387C8.95711 24.085 9.44336 24.31 10.3609 24.4337C11.3046 24.5612 12.5559 24.5625 14.3496 24.5625H20.5996C22.3946 24.5625 23.6459 24.56 24.5896 24.4337C25.5071 24.31 25.9921 24.0837 26.3396 23.7387C26.6846 23.3925 26.9109 22.9075 27.0334 21.9887C27.1609 21.0462 27.1621 19.795 27.1621 18.0013C27.1621 16.2063 27.1609 14.955 27.0334 14.01C26.9109 13.0925 26.6846 12.6075 26.3384 12.2613C26.0884 12.0113 25.7684 11.825 25.2634 11.6937C25.2871 12.4312 25.2871 13.2575 25.2871 14.1812V14.3188C25.2871 16.0275 25.2871 17.4063 25.1421 18.49C24.9896 19.615 24.6671 20.5625 23.9146 21.315C23.1621 22.0675 22.2146 22.39 21.0896 22.5425C20.0059 22.6875 18.6271 22.6875 16.9184 22.6875H10.5309C9.60711 22.6875 8.78086 22.6875 8.04336 22.665ZM6.61086 7.81625C5.69336 7.94 5.20836 8.16625 4.86211 8.51125C4.51586 8.8575 4.29086 9.3425 4.16711 10.2613C4.04086 11.2038 4.03836 12.4563 4.03836 14.25C4.03836 16.0437 4.04086 17.2963 4.16711 18.24C4.29086 19.1575 4.51711 19.6425 4.86211 19.9887C5.20836 20.335 5.69336 20.56 6.61211 20.6837C7.55461 20.81 8.80711 20.8125 10.6009 20.8125H16.8509C18.6446 20.8125 19.8971 20.81 20.8409 20.6837C21.7584 20.56 22.2434 20.3337 22.5896 19.9887C22.9359 19.6425 23.1609 19.1575 23.2846 18.2387C23.4109 17.295 23.4134 16.0437 23.4134 14.25C23.4134 12.4563 23.4109 11.2038 23.2846 10.26C23.1609 9.3425 22.9346 8.8575 22.5896 8.51125C22.2434 8.165 21.7584 7.94 20.8396 7.81625C19.8971 7.69 18.6446 7.6875 16.8509 7.6875H10.5996C8.80586 7.6875 7.55461 7.69 6.61086 7.81625ZM13.7246 12.0625C13.1444 12.0625 12.588 12.293 12.1778 12.7032C11.7676 13.1134 11.5371 13.6698 11.5371 14.25C11.5371 14.8302 11.7676 15.3866 12.1778 15.7968C12.588 16.207 13.1444 16.4375 13.7246 16.4375C14.3048 16.4375 14.8612 16.207 15.2714 15.7968C15.6816 15.3866 15.9121 14.8302 15.9121 14.25C15.9121 13.6698 15.6816 13.1134 15.2714 12.7032C14.8612 12.293 14.3048 12.0625 13.7246 12.0625ZM9.66211 14.25C9.66211 13.1726 10.0901 12.1392 10.852 11.3774C11.6139 10.6155 12.6472 10.1875 13.7246 10.1875C14.8021 10.1875 15.8354 10.6155 16.5972 11.3774C17.3591 12.1392 17.7871 13.1726 17.7871 14.25C17.7871 15.3274 17.3591 16.3608 16.5972 17.1226C15.8354 17.8845 14.8021 18.3125 13.7246 18.3125C12.6472 18.3125 11.6139 17.8845 10.852 17.1226C10.0901 16.3608 9.66211 15.3274 9.66211 14.25ZM6.84961 10.8125C7.09825 10.8125 7.33671 10.9113 7.51252 11.0871C7.68834 11.2629 7.78711 11.5014 7.78711 11.75V16.75C7.78711 16.9986 7.68834 17.2371 7.51252 17.4129C7.33671 17.5887 7.09825 17.6875 6.84961 17.6875C6.60097 17.6875 6.36251 17.5887 6.1867 17.4129C6.01088 17.2371 5.91211 16.9986 5.91211 16.75V11.75C5.91211 11.5014 6.01088 11.2629 6.1867 11.0871C6.36251 10.9113 6.60097 10.8125 6.84961 10.8125ZM20.5996 10.8125C20.8482 10.8125 21.0867 10.9113 21.2625 11.0871C21.4383 11.2629 21.5371 11.5014 21.5371 11.75V16.75C21.5371 16.9986 21.4383 17.2371 21.2625 17.4129C21.0867 17.5887 20.8482 17.6875 20.5996 17.6875C20.351 17.6875 20.1125 17.5887 19.9367 17.4129C19.7609 17.2371 19.6621 16.9986 19.6621 16.75V11.75C19.6621 11.5014 19.7609 11.2629 19.9367 11.0871C20.1125 10.9113 20.351 10.8125 20.5996 10.8125Z" fill="#BDBDBD"/>
</svg>
