<svg width="31" height="30" viewBox="0 0 31 30" fill="none" xmlns="http://www.w3.org/2000/svg">
<path fill-rule="evenodd" clip-rule="evenodd" d="M10.5309 5.3125H16.9184C18.6271 5.3125 20.0059 5.3125 21.0896 5.45875C22.2146 5.60875 23.1621 5.93375 23.9146 6.685C24.6071 7.37875 24.9359 8.2375 25.1021 9.2475C26.1134 9.4125 26.9709 9.7425 27.6646 10.435C28.4171 11.1875 28.7396 12.135 28.8921 13.26C29.0371 14.3437 29.0371 15.7225 29.0371 17.4312V17.5688C29.0371 19.2775 29.0371 20.6563 28.8921 21.74C28.7409 22.865 28.4171 23.8125 27.6646 24.565C26.9121 25.3175 25.9646 25.64 24.8396 25.7925C23.7559 25.9375 22.3771 25.9375 20.6684 25.9375H14.2809C12.5721 25.9375 11.1934 25.9375 10.1109 25.7925C8.98586 25.64 8.03836 25.3175 7.28586 24.565C6.59211 23.8713 6.26336 23.0125 6.09836 22.0025C5.08586 21.8362 4.22836 21.5075 3.53586 20.815C2.78211 20.0625 2.45961 19.115 2.30836 17.99C2.16211 16.9063 2.16211 15.5275 2.16211 13.8188V13.6812C2.16211 11.9725 2.16211 10.5937 2.30836 9.51C2.45836 8.385 2.78336 7.4375 3.53461 6.685C4.28711 5.9325 5.23461 5.61 6.35961 5.45875C7.44336 5.3125 8.82211 5.3125 10.5309 5.3125ZM8.04336 22.165C8.17586 22.6675 8.36211 22.99 8.61086 23.2387C8.95711 23.585 9.44336 23.81 10.3609 23.9337C11.3046 24.0612 12.5559 24.0625 14.3496 24.0625H20.5996C22.3946 24.0625 23.6459 24.06 24.5896 23.9337C25.5071 23.81 25.9921 23.5837 26.3396 23.2387C26.6846 22.8925 26.9109 22.4075 27.0334 21.4887C27.1609 20.5462 27.1621 19.295 27.1621 17.5013C27.1621 15.7063 27.1609 14.455 27.0334 13.51C26.9109 12.5925 26.6846 12.1075 26.3384 11.7613C26.0884 11.5113 25.7684 11.325 25.2634 11.1937C25.2871 11.9312 25.2871 12.7575 25.2871 13.6812V13.8188C25.2871 15.5275 25.2871 16.9063 25.1421 17.99C24.9896 19.115 24.6671 20.0625 23.9146 20.815C23.1621 21.5675 22.2146 21.89 21.0896 22.0425C20.0059 22.1875 18.6271 22.1875 16.9184 22.1875H10.5309C9.60711 22.1875 8.78086 22.1875 8.04336 22.165ZM6.61086 7.31625C5.69336 7.44 5.20836 7.66625 4.86211 8.01125C4.51586 8.3575 4.29086 8.8425 4.16711 9.76125C4.04086 10.7038 4.03836 11.9563 4.03836 13.75C4.03836 15.5437 4.04086 16.7963 4.16711 17.74C4.29086 18.6575 4.51711 19.1425 4.86211 19.4887C5.20836 19.835 5.69336 20.06 6.61211 20.1837C7.55461 20.31 8.80711 20.3125 10.6009 20.3125H16.8509C18.6446 20.3125 19.8971 20.31 20.8409 20.1837C21.7584 20.06 22.2434 19.8337 22.5896 19.4887C22.9359 19.1425 23.1609 18.6575 23.2846 17.7387C23.4109 16.795 23.4134 15.5437 23.4134 13.75C23.4134 11.9563 23.4109 10.7038 23.2846 9.76C23.1609 8.8425 22.9346 8.3575 22.5896 8.01125C22.2434 7.665 21.7584 7.44 20.8396 7.31625C19.8971 7.19 18.6446 7.1875 16.8509 7.1875H10.5996C8.80586 7.1875 7.55461 7.19 6.61086 7.31625ZM13.7246 11.5625C13.1444 11.5625 12.588 11.793 12.1778 12.2032C11.7676 12.6134 11.5371 13.1698 11.5371 13.75C11.5371 14.3302 11.7676 14.8866 12.1778 15.2968C12.588 15.707 13.1444 15.9375 13.7246 15.9375C14.3048 15.9375 14.8612 15.707 15.2714 15.2968C15.6816 14.8866 15.9121 14.3302 15.9121 13.75C15.9121 13.1698 15.6816 12.6134 15.2714 12.2032C14.8612 11.793 14.3048 11.5625 13.7246 11.5625ZM9.66211 13.75C9.66211 12.6726 10.0901 11.6392 10.852 10.8774C11.6139 10.1155 12.6472 9.6875 13.7246 9.6875C14.8021 9.6875 15.8354 10.1155 16.5972 10.8774C17.3591 11.6392 17.7871 12.6726 17.7871 13.75C17.7871 14.8274 17.3591 15.8608 16.5972 16.6226C15.8354 17.3845 14.8021 17.8125 13.7246 17.8125C12.6472 17.8125 11.6139 17.3845 10.852 16.6226C10.0901 15.8608 9.66211 14.8274 9.66211 13.75ZM6.84961 10.3125C7.09825 10.3125 7.33671 10.4113 7.51252 10.5871C7.68834 10.7629 7.78711 11.0014 7.78711 11.25V16.25C7.78711 16.4986 7.68834 16.7371 7.51252 16.9129C7.33671 17.0887 7.09825 17.1875 6.84961 17.1875C6.60097 17.1875 6.36251 17.0887 6.1867 16.9129C6.01088 16.7371 5.91211 16.4986 5.91211 16.25V11.25C5.91211 11.0014 6.01088 10.7629 6.1867 10.5871C6.36251 10.4113 6.60097 10.3125 6.84961 10.3125ZM20.5996 10.3125C20.8482 10.3125 21.0867 10.4113 21.2625 10.5871C21.4383 10.7629 21.5371 11.0014 21.5371 11.25V16.25C21.5371 16.4986 21.4383 16.7371 21.2625 16.9129C21.0867 17.0887 20.8482 17.1875 20.5996 17.1875C20.351 17.1875 20.1125 17.0887 19.9367 16.9129C19.7609 16.7371 19.6621 16.4986 19.6621 16.25V11.25C19.6621 11.0014 19.7609 10.7629 19.9367 10.5871C20.1125 10.4113 20.351 10.3125 20.5996 10.3125Z" fill="#22798C"/>
</svg>
