<svg width="31" height="30" viewBox="0 0 31 30" fill="none" xmlns="http://www.w3.org/2000/svg">
<path fill-rule="evenodd" clip-rule="evenodd" d="M9.07422 1.5625H21.3255C22.5967 1.5625 23.4717 1.5625 24.208 1.8175C24.8961 2.06051 25.5189 2.45897 26.0279 2.98189C26.537 3.5048 26.9185 4.13809 27.143 4.8325C27.388 5.57875 27.3867 6.46625 27.3867 7.7825V25.4675C27.3867 27.3 25.228 28.39 23.8067 27.0887C23.7611 27.0451 23.7004 27.0208 23.6373 27.0208C23.5742 27.0208 23.5136 27.0451 23.468 27.0887L22.863 27.6413C21.703 28.7038 19.9455 28.7038 18.7855 27.6413C18.5755 27.4452 18.299 27.3362 18.0117 27.3362C17.7245 27.3362 17.4479 27.4452 17.238 27.6413C16.078 28.7038 14.3205 28.7038 13.1605 27.6413C12.9505 27.4452 12.674 27.3362 12.3867 27.3362C12.0995 27.3362 11.8229 27.4452 11.613 27.6413C10.453 28.7038 8.69547 28.7038 7.53547 27.6413L6.93172 27.0887C6.88606 27.0448 6.82512 27.0202 6.76172 27.0202C6.69831 27.0202 6.63738 27.0448 6.59172 27.0887C5.17047 28.3887 3.01172 27.3 3.01172 25.4675V7.78375C3.01172 6.46625 3.01172 5.57875 3.25547 4.8325C3.47981 4.13805 3.86134 3.50472 4.3704 2.98179C4.87945 2.45886 5.5023 2.06043 6.19047 1.8175C6.92797 1.56125 7.80297 1.5625 9.07422 1.5625ZM9.25547 3.4375C7.72922 3.4375 7.20297 3.45 6.80547 3.58875C6.39014 3.73726 6.01462 3.97949 5.70809 4.29665C5.40155 4.61381 5.17224 4.99735 5.03797 5.4175C4.89922 5.84 4.88797 6.3975 4.88797 7.9625V25.4675C4.88797 25.6175 4.96172 25.7075 5.05547 25.7512C5.09824 25.7716 5.14593 25.7794 5.19297 25.7737C5.24371 25.7656 5.29055 25.7415 5.32672 25.705C5.71786 25.3449 6.23007 25.1451 6.76172 25.1451C7.29336 25.1451 7.80558 25.3449 8.19672 25.705L8.80047 26.2575C9.01042 26.4535 9.28697 26.5626 9.57422 26.5626C9.86147 26.5626 10.138 26.4535 10.348 26.2575C10.9035 25.7456 11.6313 25.4615 12.3867 25.4615C13.1421 25.4615 13.8699 25.7456 14.4255 26.2575C14.6354 26.4535 14.912 26.5626 15.1992 26.5626C15.4865 26.5626 15.763 26.4535 15.973 26.2575C16.5285 25.7456 17.2563 25.4615 18.0117 25.4615C18.7671 25.4615 19.4949 25.7456 20.0505 26.2575C20.2604 26.4535 20.537 26.5626 20.8242 26.5626C21.1115 26.5626 21.388 26.4535 21.598 26.2575L22.2017 25.705C22.5929 25.3449 23.1051 25.1451 23.6367 25.1451C24.1684 25.1451 24.6806 25.3449 25.0717 25.705C25.1255 25.755 25.1717 25.77 25.2067 25.7737C25.2533 25.7792 25.3006 25.7714 25.343 25.7512C25.4367 25.7075 25.5117 25.6163 25.5117 25.4675V7.9625C25.5117 6.3975 25.4992 5.84 25.3617 5.41625C25.227 4.99607 24.9973 4.61261 24.6903 4.29566C24.3833 3.97871 24.0074 3.73681 23.5917 3.58875C23.1955 3.45125 22.6692 3.43875 21.143 3.43875L9.25547 3.4375ZM8.01297 9.375C8.01297 9.12636 8.11174 8.8879 8.28756 8.71209C8.46337 8.53627 8.70183 8.4375 8.95047 8.4375H9.57547C9.82411 8.4375 10.0626 8.53627 10.2384 8.71209C10.4142 8.8879 10.513 9.12636 10.513 9.375C10.513 9.62364 10.4142 9.8621 10.2384 10.0379C10.0626 10.2137 9.82411 10.3125 9.57547 10.3125H8.95047C8.70183 10.3125 8.46337 10.2137 8.28756 10.0379C8.11174 9.8621 8.01297 9.62364 8.01297 9.375ZM12.388 9.375C12.388 9.12636 12.4867 8.8879 12.6626 8.71209C12.8384 8.53627 13.0768 8.4375 13.3255 8.4375H21.4505C21.6991 8.4375 21.9376 8.53627 22.1134 8.71209C22.2892 8.8879 22.388 9.12636 22.388 9.375C22.388 9.62364 22.2892 9.8621 22.1134 10.0379C21.9376 10.2137 21.6991 10.3125 21.4505 10.3125H13.3255C13.0768 10.3125 12.8384 10.2137 12.6626 10.0379C12.4867 9.8621 12.388 9.62364 12.388 9.375ZM8.01297 13.75C8.01297 13.5014 8.11174 13.2629 8.28756 13.0871C8.46337 12.9113 8.70183 12.8125 8.95047 12.8125H9.57547C9.82411 12.8125 10.0626 12.9113 10.2384 13.0871C10.4142 13.2629 10.513 13.5014 10.513 13.75C10.513 13.9986 10.4142 14.2371 10.2384 14.4129C10.0626 14.5887 9.82411 14.6875 9.57547 14.6875H8.95047C8.70183 14.6875 8.46337 14.5887 8.28756 14.4129C8.11174 14.2371 8.01297 13.9986 8.01297 13.75ZM12.388 13.75C12.388 13.5014 12.4867 13.2629 12.6626 13.0871C12.8384 12.9113 13.0768 12.8125 13.3255 12.8125H21.4505C21.6991 12.8125 21.9376 12.9113 22.1134 13.0871C22.2892 13.2629 22.388 13.5014 22.388 13.75C22.388 13.9986 22.2892 14.2371 22.1134 14.4129C21.9376 14.5887 21.6991 14.6875 21.4505 14.6875H13.3255C13.0768 14.6875 12.8384 14.5887 12.6626 14.4129C12.4867 14.2371 12.388 13.9986 12.388 13.75ZM8.01297 18.125C8.01297 17.8764 8.11174 17.6379 8.28756 17.4621C8.46337 17.2863 8.70183 17.1875 8.95047 17.1875H9.57547C9.82411 17.1875 10.0626 17.2863 10.2384 17.4621C10.4142 17.6379 10.513 17.8764 10.513 18.125C10.513 18.3736 10.4142 18.6121 10.2384 18.7879C10.0626 18.9637 9.82411 19.0625 9.57547 19.0625H8.95047C8.70183 19.0625 8.46337 18.9637 8.28756 18.7879C8.11174 18.6121 8.01297 18.3736 8.01297 18.125ZM12.388 18.125C12.388 17.8764 12.4867 17.6379 12.6626 17.4621C12.8384 17.2863 13.0768 17.1875 13.3255 17.1875H21.4505C21.6991 17.1875 21.9376 17.2863 22.1134 17.4621C22.2892 17.6379 22.388 17.8764 22.388 18.125C22.388 18.3736 22.2892 18.6121 22.1134 18.7879C21.9376 18.9637 21.6991 19.0625 21.4505 19.0625H13.3255C13.0768 19.0625 12.8384 18.9637 12.6626 18.7879C12.4867 18.6121 12.388 18.3736 12.388 18.125Z" fill="#22798C"/>
</svg>
