<svg width="31" height="31" viewBox="0 0 31 31" fill="none" xmlns="http://www.w3.org/2000/svg">
<path fill-rule="evenodd" clip-rule="evenodd" d="M9.07422 2.0625H21.3255C22.5967 2.0625 23.4717 2.0625 24.208 2.3175C24.8961 2.56051 25.5189 2.95897 26.0279 3.48189C26.537 4.0048 26.9185 4.63809 27.143 5.3325C27.388 6.07875 27.3867 6.96625 27.3867 8.2825V25.9675C27.3867 27.8 25.228 28.89 23.8067 27.5887C23.7611 27.5451 23.7004 27.5208 23.6373 27.5208C23.5742 27.5208 23.5136 27.5451 23.468 27.5887L22.863 28.1413C21.703 29.2038 19.9455 29.2038 18.7855 28.1413C18.5755 27.9452 18.299 27.8362 18.0117 27.8362C17.7245 27.8362 17.4479 27.9452 17.238 28.1413C16.078 29.2038 14.3205 29.2038 13.1605 28.1413C12.9505 27.9452 12.674 27.8362 12.3867 27.8362C12.0995 27.8362 11.8229 27.9452 11.613 28.1413C10.453 29.2038 8.69547 29.2038 7.53547 28.1413L6.93172 27.5887C6.88606 27.5448 6.82512 27.5202 6.76172 27.5202C6.69831 27.5202 6.63738 27.5448 6.59172 27.5887C5.17047 28.8887 3.01172 27.8 3.01172 25.9675V8.28375C3.01172 6.96625 3.01172 6.07875 3.25547 5.3325C3.47981 4.63805 3.86134 4.00472 4.3704 3.48179C4.87945 2.95886 5.5023 2.56043 6.19047 2.3175C6.92797 2.06125 7.80297 2.0625 9.07422 2.0625ZM9.25547 3.9375C7.72922 3.9375 7.20297 3.95 6.80547 4.08875C6.39014 4.23726 6.01462 4.47949 5.70809 4.79665C5.40155 5.11381 5.17224 5.49735 5.03797 5.9175C4.89922 6.34 4.88797 6.8975 4.88797 8.4625V25.9675C4.88797 26.1175 4.96172 26.2075 5.05547 26.2512C5.09824 26.2716 5.14593 26.2794 5.19297 26.2737C5.24371 26.2656 5.29055 26.2415 5.32672 26.205C5.71786 25.8449 6.23007 25.6451 6.76172 25.6451C7.29336 25.6451 7.80558 25.8449 8.19672 26.205L8.80047 26.7575C9.01042 26.9535 9.28697 27.0626 9.57422 27.0626C9.86147 27.0626 10.138 26.9535 10.348 26.7575C10.9035 26.2456 11.6313 25.9615 12.3867 25.9615C13.1421 25.9615 13.8699 26.2456 14.4255 26.7575C14.6354 26.9535 14.912 27.0626 15.1992 27.0626C15.4865 27.0626 15.763 26.9535 15.973 26.7575C16.5285 26.2456 17.2563 25.9615 18.0117 25.9615C18.7671 25.9615 19.4949 26.2456 20.0505 26.7575C20.2604 26.9535 20.537 27.0626 20.8242 27.0626C21.1115 27.0626 21.388 26.9535 21.598 26.7575L22.2017 26.205C22.5929 25.8449 23.1051 25.6451 23.6367 25.6451C24.1684 25.6451 24.6806 25.8449 25.0717 26.205C25.1255 26.255 25.1717 26.27 25.2067 26.2737C25.2533 26.2792 25.3006 26.2714 25.343 26.2512C25.4367 26.2075 25.5117 26.1163 25.5117 25.9675V8.4625C25.5117 6.8975 25.4992 6.34 25.3617 5.91625C25.227 5.49607 24.9973 5.11261 24.6903 4.79566C24.3833 4.47871 24.0074 4.23681 23.5917 4.08875C23.1955 3.95125 22.6692 3.93875 21.143 3.93875L9.25547 3.9375ZM8.01297 9.875C8.01297 9.62636 8.11174 9.3879 8.28756 9.21209C8.46337 9.03627 8.70183 8.9375 8.95047 8.9375H9.57547C9.82411 8.9375 10.0626 9.03627 10.2384 9.21209C10.4142 9.3879 10.513 9.62636 10.513 9.875C10.513 10.1236 10.4142 10.3621 10.2384 10.5379C10.0626 10.7137 9.82411 10.8125 9.57547 10.8125H8.95047C8.70183 10.8125 8.46337 10.7137 8.28756 10.5379C8.11174 10.3621 8.01297 10.1236 8.01297 9.875ZM12.388 9.875C12.388 9.62636 12.4867 9.3879 12.6626 9.21209C12.8384 9.03627 13.0768 8.9375 13.3255 8.9375H21.4505C21.6991 8.9375 21.9376 9.03627 22.1134 9.21209C22.2892 9.3879 22.388 9.62636 22.388 9.875C22.388 10.1236 22.2892 10.3621 22.1134 10.5379C21.9376 10.7137 21.6991 10.8125 21.4505 10.8125H13.3255C13.0768 10.8125 12.8384 10.7137 12.6626 10.5379C12.4867 10.3621 12.388 10.1236 12.388 9.875ZM8.01297 14.25C8.01297 14.0014 8.11174 13.7629 8.28756 13.5871C8.46337 13.4113 8.70183 13.3125 8.95047 13.3125H9.57547C9.82411 13.3125 10.0626 13.4113 10.2384 13.5871C10.4142 13.7629 10.513 14.0014 10.513 14.25C10.513 14.4986 10.4142 14.7371 10.2384 14.9129C10.0626 15.0887 9.82411 15.1875 9.57547 15.1875H8.95047C8.70183 15.1875 8.46337 15.0887 8.28756 14.9129C8.11174 14.7371 8.01297 14.4986 8.01297 14.25ZM12.388 14.25C12.388 14.0014 12.4867 13.7629 12.6626 13.5871C12.8384 13.4113 13.0768 13.3125 13.3255 13.3125H21.4505C21.6991 13.3125 21.9376 13.4113 22.1134 13.5871C22.2892 13.7629 22.388 14.0014 22.388 14.25C22.388 14.4986 22.2892 14.7371 22.1134 14.9129C21.9376 15.0887 21.6991 15.1875 21.4505 15.1875H13.3255C13.0768 15.1875 12.8384 15.0887 12.6626 14.9129C12.4867 14.7371 12.388 14.4986 12.388 14.25ZM8.01297 18.625C8.01297 18.3764 8.11174 18.1379 8.28756 17.9621C8.46337 17.7863 8.70183 17.6875 8.95047 17.6875H9.57547C9.82411 17.6875 10.0626 17.7863 10.2384 17.9621C10.4142 18.1379 10.513 18.3764 10.513 18.625C10.513 18.8736 10.4142 19.1121 10.2384 19.2879C10.0626 19.4637 9.82411 19.5625 9.57547 19.5625H8.95047C8.70183 19.5625 8.46337 19.4637 8.28756 19.2879C8.11174 19.1121 8.01297 18.8736 8.01297 18.625ZM12.388 18.625C12.388 18.3764 12.4867 18.1379 12.6626 17.9621C12.8384 17.7863 13.0768 17.6875 13.3255 17.6875H21.4505C21.6991 17.6875 21.9376 17.7863 22.1134 17.9621C22.2892 18.1379 22.388 18.3764 22.388 18.625C22.388 18.8736 22.2892 19.1121 22.1134 19.2879C21.9376 19.4637 21.6991 19.5625 21.4505 19.5625H13.3255C13.0768 19.5625 12.8384 19.4637 12.6626 19.2879C12.4867 19.1121 12.388 18.8736 12.388 18.625Z" fill="#BDBDBD"/>
</svg>
