<svg width="31" height="30" viewBox="0 0 31 30" fill="none" xmlns="http://www.w3.org/2000/svg">
<path fill-rule="evenodd" clip-rule="evenodd" d="M15.4004 10.3125C14.1572 10.3125 12.9649 10.8064 12.0858 11.6854C11.2068 12.5645 10.7129 13.7568 10.7129 15C10.7129 16.2432 11.2068 17.4355 12.0858 18.3146C12.9649 19.1936 14.1572 19.6875 15.4004 19.6875C16.6436 19.6875 17.8359 19.1936 18.715 18.3146C19.594 17.4355 20.0879 16.2432 20.0879 15C20.0879 13.7568 19.594 12.5645 18.715 11.6854C17.8359 10.8064 16.6436 10.3125 15.4004 10.3125ZM12.5879 15C12.5879 14.2541 12.8842 13.5387 13.4117 13.0113C13.9391 12.4838 14.6545 12.1875 15.4004 12.1875C16.1463 12.1875 16.8617 12.4838 17.3891 13.0113C17.9166 13.5387 18.2129 14.2541 18.2129 15C18.2129 15.7459 17.9166 16.4613 17.3891 16.9887C16.8617 17.5162 16.1463 17.8125 15.4004 17.8125C14.6545 17.8125 13.9391 17.5162 13.4117 16.9887C12.8842 16.4613 12.5879 15.7459 12.5879 15Z" fill="#22798C"/>
<path fill-rule="evenodd" clip-rule="evenodd" d="M15.3696 1.5625C14.8133 1.5625 14.3496 1.5625 13.9696 1.5875C13.5812 1.60367 13.1981 1.68392 12.8358 1.825C12.4187 1.99761 12.0396 2.25072 11.7202 2.56986C11.4008 2.889 11.1475 3.26793 10.9746 3.685C10.7933 4.1225 10.7446 4.585 10.7246 5.0875C10.7226 5.27128 10.6739 5.45153 10.5832 5.61136C10.4925 5.77119 10.3626 5.90534 10.2058 6.00125C10.0444 6.08938 9.8633 6.13504 9.67941 6.13395C9.49552 6.13285 9.31493 6.08504 9.15459 5.995C8.70959 5.76 8.28459 5.57125 7.81459 5.50875C7.36702 5.44988 6.91224 5.47974 6.47621 5.59663C6.04018 5.71352 5.63145 5.91515 5.27334 6.19C4.97056 6.4336 4.70999 6.72543 4.50209 7.05375C4.28959 7.37125 4.05709 7.7725 3.77959 8.25375L3.74834 8.30875C3.46959 8.79 3.23834 9.19125 3.07084 9.53375C2.89584 9.89125 2.75834 10.2437 2.70834 10.6337C2.58909 11.5375 2.83369 12.4516 3.38834 13.175C3.67709 13.5512 4.05334 13.825 4.47834 14.0925C4.63679 14.1862 4.7688 14.3186 4.86196 14.4774C4.95511 14.6361 5.00635 14.816 5.01084 15C5.00635 15.184 4.95511 15.3639 4.86196 15.5226C4.7688 15.6814 4.63679 15.8138 4.47834 15.9075C4.05334 16.175 3.67834 16.4488 3.38834 16.825C3.11349 17.1831 2.91186 17.5918 2.79497 18.0279C2.67808 18.4639 2.64822 18.9187 2.70709 19.3663C2.75834 19.7563 2.89459 20.1087 3.06959 20.4662C3.23834 20.8087 3.46959 21.21 3.74834 21.6913L3.77959 21.7462C4.05709 22.2275 4.28959 22.6288 4.50209 22.9463C4.72334 23.275 4.96084 23.5713 5.27334 23.8088C5.63135 24.0838 6.04005 24.2857 6.47608 24.4028C6.91211 24.5199 7.36694 24.5499 7.81459 24.4913C8.28459 24.4288 8.70959 24.2413 9.15459 24.005C9.31474 23.9151 9.49512 23.8673 9.67878 23.8662C9.86245 23.8651 10.0434 23.9107 10.2046 23.9987C10.3622 24.0939 10.4929 24.2278 10.5841 24.3878C10.6754 24.5477 10.7242 24.7284 10.7258 24.9125C10.7446 25.415 10.7933 25.8775 10.9758 26.315C11.1485 26.7322 11.4016 27.1113 11.7207 27.4306C12.0398 27.75 12.4188 28.0034 12.8358 28.1763C13.1983 28.3263 13.5733 28.385 13.9696 28.4113C14.3496 28.4375 14.8133 28.4375 15.3696 28.4375H15.4321C15.9883 28.4375 16.4521 28.4375 16.8321 28.4125C17.2296 28.385 17.6033 28.3263 17.9658 28.175C18.383 28.0024 18.7621 27.7493 19.0815 27.4301C19.4008 27.111 19.6542 26.7321 19.8271 26.315C20.0083 25.8775 20.0571 25.415 20.0771 24.9125C20.0789 24.7285 20.1274 24.548 20.2182 24.3879C20.3089 24.2279 20.4389 24.0935 20.5958 23.9975C20.7573 23.9096 20.9385 23.8641 21.1224 23.8654C21.3063 23.8667 21.4869 23.9148 21.6471 24.005C22.0921 24.24 22.5171 24.4287 22.9871 24.49C23.8908 24.6092 24.8049 24.3647 25.5283 23.81C25.8408 23.57 26.0783 23.275 26.2996 22.9463C26.5121 22.6288 26.7446 22.2275 27.0221 21.7462L27.0533 21.6913C27.3321 21.21 27.5633 20.8087 27.7308 20.4662C27.9058 20.1087 28.0433 19.755 28.0933 19.3663C28.2126 18.4625 27.968 17.5484 27.4133 16.825C27.1246 16.4488 26.7483 16.175 26.3233 15.9075C26.1649 15.8138 26.0329 15.6814 25.9397 15.5226C25.8466 15.3639 25.7953 15.184 25.7908 15C25.7908 14.6525 25.9808 14.3075 26.3233 14.0925C26.7483 13.825 27.1233 13.5512 27.4133 13.175C27.6882 12.8169 27.8898 12.4082 28.0067 11.9721C28.1236 11.5361 28.1535 11.0813 28.0946 10.6337C28.0351 10.2496 27.9126 9.87798 27.7321 9.53375C27.5187 9.11843 27.2923 8.7099 27.0533 8.30875L27.0221 8.25375C26.7938 7.84636 26.5528 7.44617 26.2996 7.05375C26.0917 6.72577 25.8311 6.43436 25.5283 6.19125C25.1703 5.91618 24.7616 5.71432 24.3256 5.59722C23.8896 5.48012 23.4347 5.45005 22.9871 5.50875C22.5171 5.57125 22.0921 5.75875 21.6471 5.995C21.4869 6.08482 21.3065 6.13251 21.1229 6.1336C20.9393 6.13469 20.7583 6.08916 20.5971 6.00125C20.4398 5.90565 20.3095 5.77162 20.2183 5.61177C20.1271 5.45193 20.0781 5.27151 20.0758 5.0875C20.0571 4.585 20.0083 4.1225 19.8258 3.685C19.6532 3.26781 19.4001 2.88871 19.081 2.56936C18.7618 2.25 18.3829 1.99664 17.9658 1.82375C17.6033 1.67375 17.2283 1.615 16.8321 1.58875C16.4521 1.5625 15.9883 1.5625 15.4321 1.5625H15.3696ZM13.5533 3.55625C13.6496 3.51625 13.7958 3.48 14.0971 3.45875C14.4058 3.4375 14.8058 3.4375 15.4008 3.4375C15.9958 3.4375 16.3958 3.4375 16.7046 3.45875C17.0058 3.48 17.1521 3.51625 17.2483 3.55625C17.6321 3.715 17.9358 4.01875 18.0946 4.4025C18.1446 4.5225 18.1858 4.71125 18.2021 5.1575C18.2396 6.1475 18.7508 7.10125 19.6583 7.625C20.5658 8.15 21.6471 8.115 22.5233 7.6525C22.9183 7.44375 23.1021 7.385 23.2321 7.36875C23.6428 7.31448 24.0582 7.42554 24.3871 7.6775C24.4696 7.74125 24.5746 7.85 24.7433 8.1C24.9171 8.3575 25.1171 8.70375 25.4146 9.21875C25.7121 9.73375 25.9108 10.0812 26.0471 10.3587C26.1808 10.63 26.2221 10.775 26.2346 10.8788C26.2889 11.2895 26.1778 11.7049 25.9258 12.0337C25.8458 12.1375 25.7033 12.2675 25.3258 12.505C24.4858 13.0325 23.9158 13.9525 23.9158 15C23.9158 16.0475 24.4858 16.9675 25.3258 17.495C25.7033 17.7325 25.8458 17.8625 25.9258 17.9663C26.1783 18.295 26.2883 18.71 26.2346 19.1212C26.2221 19.225 26.1796 19.3713 26.0471 19.6413C25.9108 19.92 25.7121 20.2662 25.4146 20.7812C25.1171 21.2963 24.9158 21.6425 24.7433 21.9C24.5746 22.15 24.4696 22.2587 24.3871 22.3225C24.0582 22.5745 23.6428 22.6855 23.2321 22.6312C23.1021 22.615 22.9196 22.5563 22.5233 22.3475C21.6483 21.885 20.5658 21.85 19.6583 22.3738C18.7508 22.8988 18.2396 23.8525 18.2021 24.8425C18.1858 25.2888 18.1446 25.4775 18.0946 25.5975C18.0161 25.7872 17.9009 25.9597 17.7557 26.1049C17.6105 26.2501 17.4381 26.3652 17.2483 26.4438C17.1521 26.4838 17.0058 26.52 16.7046 26.5412C16.3958 26.5625 15.9958 26.5625 15.4008 26.5625C14.8058 26.5625 14.4058 26.5625 14.0971 26.5412C13.7958 26.52 13.6496 26.4838 13.5533 26.4438C13.3636 26.3652 13.1912 26.2501 13.046 26.1049C12.9008 25.9597 12.7856 25.7872 12.7071 25.5975C12.6571 25.4775 12.6158 25.2888 12.5996 24.8425C12.5621 23.8525 12.0508 22.8987 11.1433 22.375C10.2358 21.85 9.15459 21.885 8.27834 22.3475C7.88334 22.5563 7.69959 22.615 7.56959 22.6312C7.15889 22.6855 6.74344 22.5745 6.41459 22.3225C6.33209 22.2587 6.22709 22.15 6.05834 21.9C5.82323 21.534 5.59938 21.1609 5.38709 20.7812C5.08959 20.2662 4.89084 19.9188 4.75459 19.6413C4.62084 19.37 4.57959 19.225 4.56709 19.1212C4.51282 18.7105 4.62388 18.2951 4.87584 17.9663C4.95584 17.8625 5.09834 17.7325 5.47584 17.495C6.31584 16.9675 6.88584 16.0475 6.88584 15C6.88584 13.9525 6.31584 13.0325 5.47584 12.505C5.09834 12.2675 4.95584 12.1375 4.87584 12.0337C4.62388 11.7049 4.51282 11.2895 4.56709 10.8788C4.57959 10.775 4.62209 10.6287 4.75459 10.3587C4.89084 10.08 5.08959 9.73375 5.38709 9.21875C5.68459 8.70375 5.88584 8.3575 6.05834 8.1C6.22709 7.85 6.33209 7.74125 6.41459 7.6775C6.74344 7.42554 7.15889 7.31448 7.56959 7.36875C7.69959 7.385 7.88209 7.44375 8.27834 7.6525C9.15334 8.115 10.2358 8.15 11.1433 7.625C12.0508 7.10125 12.5621 6.1475 12.5996 5.1575C12.6158 4.71125 12.6571 4.5225 12.7071 4.4025C12.8658 4.01875 13.1696 3.715 13.5533 3.55625Z" fill="#22798C"/>
</svg>
