<svg width="31" height="31" viewBox="0 0 31 31" fill="none" xmlns="http://www.w3.org/2000/svg">
<path fill-rule="evenodd" clip-rule="evenodd" d="M15.4004 10.8125C14.1572 10.8125 12.9649 11.3064 12.0858 12.1854C11.2068 13.0645 10.7129 14.2568 10.7129 15.5C10.7129 16.7432 11.2068 17.9355 12.0858 18.8146C12.9649 19.6936 14.1572 20.1875 15.4004 20.1875C16.6436 20.1875 17.8359 19.6936 18.715 18.8146C19.594 17.9355 20.0879 16.7432 20.0879 15.5C20.0879 14.2568 19.594 13.0645 18.715 12.1854C17.8359 11.3064 16.6436 10.8125 15.4004 10.8125ZM12.5879 15.5C12.5879 14.7541 12.8842 14.0387 13.4117 13.5113C13.9391 12.9838 14.6545 12.6875 15.4004 12.6875C16.1463 12.6875 16.8617 12.9838 17.3891 13.5113C17.9166 14.0387 18.2129 14.7541 18.2129 15.5C18.2129 16.2459 17.9166 16.9613 17.3891 17.4887C16.8617 18.0162 16.1463 18.3125 15.4004 18.3125C14.6545 18.3125 13.9391 18.0162 13.4117 17.4887C12.8842 16.9613 12.5879 16.2459 12.5879 15.5Z" fill="#BDBDBD"/>
<path fill-rule="evenodd" clip-rule="evenodd" d="M15.3696 2.0625C14.8133 2.0625 14.3496 2.0625 13.9696 2.0875C13.5812 2.10367 13.1981 2.18392 12.8358 2.325C12.4187 2.49761 12.0396 2.75072 11.7202 3.06986C11.4008 3.389 11.1475 3.76793 10.9746 4.185C10.7933 4.6225 10.7446 5.085 10.7246 5.5875C10.7226 5.77128 10.6739 5.95153 10.5832 6.11136C10.4925 6.27119 10.3626 6.40534 10.2058 6.50125C10.0444 6.58938 9.8633 6.63504 9.67941 6.63395C9.49552 6.63285 9.31493 6.58504 9.15459 6.495C8.70959 6.26 8.28459 6.07125 7.81459 6.00875C7.36702 5.94988 6.91224 5.97974 6.47621 6.09663C6.04018 6.21352 5.63145 6.41515 5.27334 6.69C4.97056 6.9336 4.70999 7.22543 4.50209 7.55375C4.28959 7.87125 4.05709 8.2725 3.77959 8.75375L3.74834 8.80875C3.46959 9.29 3.23834 9.69125 3.07084 10.0337C2.89584 10.3912 2.75834 10.7437 2.70834 11.1337C2.58909 12.0375 2.83369 12.9516 3.38834 13.675C3.67709 14.0512 4.05334 14.325 4.47834 14.5925C4.63679 14.6862 4.7688 14.8186 4.86196 14.9774C4.95511 15.1361 5.00635 15.316 5.01084 15.5C5.00635 15.684 4.95511 15.8639 4.86196 16.0226C4.7688 16.1814 4.63679 16.3138 4.47834 16.4075C4.05334 16.675 3.67834 16.9488 3.38834 17.325C3.11349 17.6831 2.91186 18.0918 2.79497 18.5279C2.67808 18.9639 2.64822 19.4187 2.70709 19.8663C2.75834 20.2563 2.89459 20.6087 3.06959 20.9662C3.23834 21.3087 3.46959 21.71 3.74834 22.1913L3.77959 22.2462C4.05709 22.7275 4.28959 23.1288 4.50209 23.4463C4.72334 23.775 4.96084 24.0713 5.27334 24.3088C5.63135 24.5838 6.04005 24.7857 6.47608 24.9028C6.91211 25.0199 7.36694 25.0499 7.81459 24.9913C8.28459 24.9288 8.70959 24.7413 9.15459 24.505C9.31474 24.4151 9.49512 24.3673 9.67878 24.3662C9.86245 24.3651 10.0434 24.4107 10.2046 24.4987C10.3622 24.5939 10.4929 24.7278 10.5841 24.8878C10.6754 25.0477 10.7242 25.2284 10.7258 25.4125C10.7446 25.915 10.7933 26.3775 10.9758 26.815C11.1485 27.2322 11.4016 27.6113 11.7207 27.9306C12.0398 28.25 12.4188 28.5034 12.8358 28.6763C13.1983 28.8263 13.5733 28.885 13.9696 28.9113C14.3496 28.9375 14.8133 28.9375 15.3696 28.9375H15.4321C15.9883 28.9375 16.4521 28.9375 16.8321 28.9125C17.2296 28.885 17.6033 28.8263 17.9658 28.675C18.383 28.5024 18.7621 28.2493 19.0815 27.9301C19.4008 27.611 19.6542 27.2321 19.8271 26.815C20.0083 26.3775 20.0571 25.915 20.0771 25.4125C20.0789 25.2285 20.1274 25.048 20.2182 24.8879C20.3089 24.7279 20.4389 24.5935 20.5958 24.4975C20.7573 24.4096 20.9385 24.3641 21.1224 24.3654C21.3063 24.3667 21.4869 24.4148 21.6471 24.505C22.0921 24.74 22.5171 24.9287 22.9871 24.99C23.8908 25.1092 24.8049 24.8647 25.5283 24.31C25.8408 24.07 26.0783 23.775 26.2996 23.4463C26.5121 23.1288 26.7446 22.7275 27.0221 22.2462L27.0533 22.1913C27.3321 21.71 27.5633 21.3087 27.7308 20.9662C27.9058 20.6087 28.0433 20.255 28.0933 19.8663C28.2126 18.9625 27.968 18.0484 27.4133 17.325C27.1246 16.9488 26.7483 16.675 26.3233 16.4075C26.1649 16.3138 26.0329 16.1814 25.9397 16.0226C25.8466 15.8639 25.7953 15.684 25.7908 15.5C25.7908 15.1525 25.9808 14.8075 26.3233 14.5925C26.7483 14.325 27.1233 14.0512 27.4133 13.675C27.6882 13.3169 27.8898 12.9082 28.0067 12.4721C28.1236 12.0361 28.1535 11.5813 28.0946 11.1337C28.0351 10.7496 27.9126 10.378 27.7321 10.0337C27.5187 9.61843 27.2923 9.2099 27.0533 8.80875L27.0221 8.75375C26.7938 8.34636 26.5528 7.94617 26.2996 7.55375C26.0917 7.22577 25.8311 6.93436 25.5283 6.69125C25.1703 6.41618 24.7616 6.21432 24.3256 6.09722C23.8896 5.98012 23.4347 5.95005 22.9871 6.00875C22.5171 6.07125 22.0921 6.25875 21.6471 6.495C21.4869 6.58482 21.3065 6.63251 21.1229 6.6336C20.9393 6.63469 20.7583 6.58916 20.5971 6.50125C20.4398 6.40565 20.3095 6.27162 20.2183 6.11177C20.1271 5.95193 20.0781 5.77151 20.0758 5.5875C20.0571 5.085 20.0083 4.6225 19.8258 4.185C19.6532 3.76781 19.4001 3.38871 19.081 3.06936C18.7618 2.75 18.3829 2.49664 17.9658 2.32375C17.6033 2.17375 17.2283 2.115 16.8321 2.08875C16.4521 2.0625 15.9883 2.0625 15.4321 2.0625H15.3696ZM13.5533 4.05625C13.6496 4.01625 13.7958 3.98 14.0971 3.95875C14.4058 3.9375 14.8058 3.9375 15.4008 3.9375C15.9958 3.9375 16.3958 3.9375 16.7046 3.95875C17.0058 3.98 17.1521 4.01625 17.2483 4.05625C17.6321 4.215 17.9358 4.51875 18.0946 4.9025C18.1446 5.0225 18.1858 5.21125 18.2021 5.6575C18.2396 6.6475 18.7508 7.60125 19.6583 8.125C20.5658 8.65 21.6471 8.615 22.5233 8.1525C22.9183 7.94375 23.1021 7.885 23.2321 7.86875C23.6428 7.81448 24.0582 7.92554 24.3871 8.1775C24.4696 8.24125 24.5746 8.35 24.7433 8.6C24.9171 8.8575 25.1171 9.20375 25.4146 9.71875C25.7121 10.2338 25.9108 10.5812 26.0471 10.8587C26.1808 11.13 26.2221 11.275 26.2346 11.3788C26.2889 11.7895 26.1778 12.2049 25.9258 12.5337C25.8458 12.6375 25.7033 12.7675 25.3258 13.005C24.4858 13.5325 23.9158 14.4525 23.9158 15.5C23.9158 16.5475 24.4858 17.4675 25.3258 17.995C25.7033 18.2325 25.8458 18.3625 25.9258 18.4663C26.1783 18.795 26.2883 19.21 26.2346 19.6212C26.2221 19.725 26.1796 19.8713 26.0471 20.1413C25.9108 20.42 25.7121 20.7662 25.4146 21.2812C25.1171 21.7963 24.9158 22.1425 24.7433 22.4C24.5746 22.65 24.4696 22.7587 24.3871 22.8225C24.0582 23.0745 23.6428 23.1855 23.2321 23.1312C23.1021 23.115 22.9196 23.0563 22.5233 22.8475C21.6483 22.385 20.5658 22.35 19.6583 22.8738C18.7508 23.3988 18.2396 24.3525 18.2021 25.3425C18.1858 25.7888 18.1446 25.9775 18.0946 26.0975C18.0161 26.2872 17.9009 26.4597 17.7557 26.6049C17.6105 26.7501 17.4381 26.8652 17.2483 26.9438C17.1521 26.9838 17.0058 27.02 16.7046 27.0412C16.3958 27.0625 15.9958 27.0625 15.4008 27.0625C14.8058 27.0625 14.4058 27.0625 14.0971 27.0412C13.7958 27.02 13.6496 26.9838 13.5533 26.9438C13.3636 26.8652 13.1912 26.7501 13.046 26.6049C12.9008 26.4597 12.7856 26.2872 12.7071 26.0975C12.6571 25.9775 12.6158 25.7888 12.5996 25.3425C12.5621 24.3525 12.0508 23.3987 11.1433 22.875C10.2358 22.35 9.15459 22.385 8.27834 22.8475C7.88334 23.0563 7.69959 23.115 7.56959 23.1312C7.15889 23.1855 6.74344 23.0745 6.41459 22.8225C6.33209 22.7587 6.22709 22.65 6.05834 22.4C5.82323 22.034 5.59938 21.6609 5.38709 21.2812C5.08959 20.7662 4.89084 20.4188 4.75459 20.1413C4.62084 19.87 4.57959 19.725 4.56709 19.6212C4.51282 19.2105 4.62388 18.7951 4.87584 18.4663C4.95584 18.3625 5.09834 18.2325 5.47584 17.995C6.31584 17.4675 6.88584 16.5475 6.88584 15.5C6.88584 14.4525 6.31584 13.5325 5.47584 13.005C5.09834 12.7675 4.95584 12.6375 4.87584 12.5337C4.62388 12.2049 4.51282 11.7895 4.56709 11.3788C4.57959 11.275 4.62209 11.1287 4.75459 10.8587C4.89084 10.58 5.08959 10.2338 5.38709 9.71875C5.68459 9.20375 5.88584 8.8575 6.05834 8.6C6.22709 8.35 6.33209 8.24125 6.41459 8.1775C6.74344 7.92554 7.15889 7.81448 7.56959 7.86875C7.69959 7.885 7.88209 7.94375 8.27834 8.1525C9.15334 8.615 10.2358 8.65 11.1433 8.125C12.0508 7.60125 12.5621 6.6475 12.5996 5.6575C12.6158 5.21125 12.6571 5.0225 12.7071 4.9025C12.8658 4.51875 13.1696 4.215 13.5533 4.05625Z" fill="#BDBDBD"/>
</svg>
