<svg width="60" height="61" viewBox="0 0 60 61" fill="none" xmlns="http://www.w3.org/2000/svg">
<path d="M30 37.5142C34.1421 37.5142 37.5 34.1564 37.5 30.0142C37.5 25.8721 34.1421 22.5142 30 22.5142C25.8579 22.5142 22.5 25.8721 22.5 30.0142C22.5 34.1564 25.8579 37.5142 30 37.5142Z" stroke="#22798C" stroke-width="3.75"/>
<path d="M36.25 17.5143L40 12.5143M47.5 17.5143L50 15.0143M30 12.5143L27.5 10.0143M26.25 17.5143L22.835 18.4293M17.5 12.5143L15 10.0143M16.98 22.8743L15.5175 19.6543" stroke="#22798C" stroke-width="3.75" stroke-linecap="round"/>
<path d="M31.25 55.0143L31.335 56.8893C31.6749 56.8742 32.0043 56.7668 32.2878 56.5787C32.5714 56.3907 32.7984 56.129 32.9446 55.8217C33.0908 55.5145 33.1506 55.1732 33.1176 54.8346C33.0847 54.4959 32.9602 54.1726 32.7575 53.8993L31.25 55.0143ZM54.0675 36.8068L52.85 38.2318C53.0893 38.4356 53.3759 38.576 53.6835 38.64C53.9912 38.7041 54.31 38.6897 54.6107 38.5984C54.9114 38.507 55.1843 38.3416 55.4044 38.1172C55.6244 37.8928 55.7845 37.6168 55.87 37.3143L54.0675 36.8068ZM46.46 41.5718L44.9525 42.6868C45.1129 42.9035 45.3182 43.083 45.5543 43.2131C45.7904 43.3432 46.0518 43.4209 46.3206 43.4408C46.5895 43.4607 46.8595 43.4225 47.1122 43.3286C47.3649 43.2347 47.5944 43.0875 47.785 42.8968L46.46 41.5718ZM46.7125 41.3168L48.0375 42.6418C48.2489 42.4308 48.4069 42.1724 48.4982 41.888C48.5895 41.6036 48.6115 41.3015 48.5625 41.0068L46.7125 41.3168ZM36.5475 48.2418L35.985 50.0294C36.3118 50.1321 36.6606 50.1432 36.9933 50.0617C37.3261 49.9802 37.6302 49.809 37.8725 49.5668L36.5475 48.2418ZM37.01 47.7794L38.335 49.1043C38.6525 48.7869 38.8456 48.366 38.8791 47.9182C38.9126 47.4704 38.7843 47.0255 38.5175 46.6643L37.01 47.7794ZM30 53.1393C23.8669 53.1393 17.9849 50.703 13.6482 46.3662C9.31138 42.0294 6.875 36.1475 6.875 30.0143H3.125C3.125 44.8568 15.1575 56.8893 30 56.8893V53.1393ZM6.875 30.0143C6.875 23.8812 9.31138 17.9993 13.6482 13.6625C17.9849 9.32572 23.8669 6.88934 30 6.88934V3.13934C15.1575 3.13934 3.125 15.1718 3.125 30.0143H6.875ZM30 6.88934C36.1331 6.88934 42.0151 9.32572 46.3518 13.6625C50.6886 17.9993 53.125 23.8812 53.125 30.0143H56.875C56.875 15.1718 44.8425 3.13934 30 3.13934V6.88934ZM32.7575 53.8993C32.175 53.1119 32.2575 51.4919 33.475 50.5919L31.245 47.5768C28.4525 49.6418 27.8625 53.5868 29.7425 56.1293L32.7575 53.8993ZM38.055 46.0368C37.315 45.0368 37.465 42.9743 39.4125 41.5343L37.1825 38.5193C34.12 40.7868 32.7 45.1018 35.04 48.2693L38.055 46.0368ZM39.4125 41.5343C41.3625 40.0918 43.3775 40.5568 44.115 41.5543L47.13 39.3243C44.79 36.1618 40.2475 36.2543 37.1825 38.5193L39.4125 41.5343ZM49.8125 38.5093C51.0525 37.5918 52.3125 37.7768 52.85 38.2343L55.2825 35.3793C53.115 33.5318 49.8775 33.7968 47.5825 35.4943L49.8125 38.5093ZM53.125 30.0143C53.1273 32.139 52.8371 34.2539 52.2625 36.2993L55.87 37.3143C56.525 34.9893 56.875 32.5418 56.875 30.0143H53.125ZM31.165 53.1393C30.83 53.1568 30.505 53.1393 30 53.1393V56.8893C30.275 56.8893 30.9 56.9068 31.335 56.8893L31.165 53.1393ZM44.115 41.5543L44.9525 42.6868L47.9675 40.4568L47.13 39.3243L44.115 41.5543ZM48.565 41.0068C48.4475 40.3218 48.78 39.2718 49.8125 38.5093L47.5825 35.4943C45.605 36.9568 44.4825 39.3343 44.865 41.6268L48.565 41.0068ZM47.785 42.8968L48.04 42.6443L45.39 39.9918L45.135 40.2443L47.785 42.8968ZM33.475 50.5919C34.3675 49.9294 35.3375 49.8269 35.985 50.0294L37.11 46.4543C35.1925 45.8493 32.99 46.2843 31.245 47.5768L33.475 50.5919ZM35.04 48.2693L35.5025 48.8918L38.5175 46.6643L38.055 46.0368L35.04 48.2693ZM37.8725 49.5668L38.3375 49.1043L35.685 46.4543L35.2225 46.9168L37.8725 49.5668Z" fill="#22798C"/>
<path d="M5 32.5143C5 32.5143 10.5 37.5143 15 37.5143C18.03 37.5143 21.515 35.2443 23.4675 33.7643M40 38.7643C38.75 37.5143 36.1775 36.6118 35 35.5743" stroke="#22798C" stroke-width="3.75"/>
<path d="M41.625 22.4568L41.79 25.9868M51.695 25.2268L47.5 28.9218M14.1625 31.6168L16.25 28.7643M9.20751 25.8893L9.01001 22.3593" stroke="#22798C" stroke-width="3.75" stroke-linecap="round"/>
</svg>
