<svg width="60" height="61" viewBox="0 0 60 61" fill="none" xmlns="http://www.w3.org/2000/svg">
<path d="M15.425 15.7871C16.6595 14.5518 18.1252 13.5719 19.7386 12.9033C21.3519 12.2347 23.0812 11.8906 24.8275 11.8906C26.5739 11.8906 28.3032 12.2347 29.9165 12.9033C31.5298 13.5719 32.9956 14.5518 34.23 15.7871C36.7247 18.2839 38.126 21.6689 38.126 25.1984C38.126 28.7278 36.7247 32.1129 34.23 34.6096L30.655 38.1846C30.3133 38.5381 30.1241 39.0116 30.1281 39.5033C30.1322 39.9949 30.3292 40.4652 30.6766 40.8131C31.0241 41.1609 31.4943 41.3583 31.9859 41.3628C32.4775 41.3673 32.9512 41.1785 33.305 40.8371L36.88 37.2596C40.0777 34.0597 41.874 29.7209 41.874 25.1971C41.874 20.6733 40.0777 16.3346 36.88 13.1346C35.2973 11.5508 33.4181 10.2945 31.3496 9.43726C29.2812 8.58006 27.0641 8.13885 24.825 8.13885C22.586 8.13885 20.3689 8.58006 18.3005 9.43726C16.232 10.2945 14.3527 11.5508 12.77 13.1346L5.62004 20.2946C3.29526 22.6238 1.69355 25.5755 1.00786 28.7942C0.322161 32.0128 0.581737 35.3611 1.75531 38.4356C2.92889 41.51 4.9664 44.1796 7.62239 46.1227C10.2784 48.0658 13.4395 49.1994 16.725 49.3871C16.9709 49.4007 17.2171 49.3658 17.4495 49.2843C17.6819 49.2028 17.896 49.0763 18.0795 48.912C18.263 48.7478 18.4124 48.549 18.519 48.327C18.6257 48.1051 18.6877 47.8643 18.7013 47.6184C18.7149 47.3725 18.68 47.1263 18.5985 46.8939C18.5169 46.6615 18.3905 46.4474 18.2262 46.2639C18.062 46.0804 17.8632 45.9311 17.6412 45.8244C17.4192 45.7177 17.1784 45.6557 16.9325 45.6421C14.3691 45.4954 11.9028 44.6106 9.83063 43.0943C7.7585 41.578 6.16897 39.495 5.25353 37.0961C4.33809 34.6972 4.13578 32.0848 4.67098 29.5735C5.20618 27.0623 6.45606 24.7593 8.27004 22.9421L15.425 15.7871Z" fill="#22798C"/>
<path d="M43.275 10.6422C42.7784 10.6146 42.2912 10.7855 41.9205 11.1172C41.5499 11.4489 41.3263 11.9143 41.2987 12.4109C41.2712 12.9075 41.4421 13.3947 41.7738 13.7654C42.1055 14.136 42.5709 14.3596 43.0675 14.3872C45.6309 14.5339 48.0973 15.4187 50.1694 16.935C52.2415 18.4512 53.831 20.5343 54.7465 22.9332C55.6619 25.3321 55.8642 27.9445 55.329 30.4558C54.7938 32.967 53.544 35.27 51.73 37.0872L44.575 44.2397C43.3405 45.4753 41.8746 46.4556 40.261 47.1244C38.6475 47.7932 36.9179 48.1375 35.1712 48.1375C33.4246 48.1375 31.695 47.7932 30.0814 47.1244C28.4679 46.4556 27.002 45.4753 25.7675 44.2397C23.2736 41.743 21.8727 38.3585 21.8727 34.8297C21.8727 31.3008 23.2736 27.9163 25.7675 25.4197L29.3425 21.8397C29.6737 21.4842 29.854 21.0141 29.8454 20.5284C29.8368 20.0426 29.6401 19.5791 29.2965 19.2356C28.953 18.8921 28.4895 18.6953 28.0038 18.6867C27.518 18.6781 27.0479 18.8585 26.6925 19.1897L23.1175 22.7672C19.9198 25.9671 18.1235 30.3058 18.1235 34.8297C18.1235 39.3535 19.9198 43.6922 23.1175 46.8922C24.7002 48.4759 26.5794 49.7323 28.6479 50.5895C30.7164 51.4467 32.9334 51.8879 35.1725 51.8879C37.4115 51.8879 39.6286 51.4467 41.6971 50.5895C43.7655 49.7323 45.6448 48.4759 47.2275 46.8922L54.3775 39.7322C56.7014 37.403 58.3024 34.4517 58.9877 31.2337C59.673 28.0156 59.4135 24.6681 58.2403 21.5942C57.0671 18.5203 55.0303 15.851 52.3751 13.9079C49.72 11.9648 46.5598 10.8307 43.275 10.6422Z" fill="#22798C"/>
</svg>
