<svg width="60" height="61" viewBox="0 0 60 61" fill="none" xmlns="http://www.w3.org/2000/svg">
<path d="M5 27.5143C5 20.4443 5 16.9068 7.1975 14.7118C9.3925 12.5143 12.93 12.5143 20 12.5143H32.5C39.57 12.5143 43.1075 12.5143 45.3025 14.7118C47.5 16.9068 47.5 20.4443 47.5 27.5143C47.5 34.5843 47.5 38.1218 45.3025 40.3168C43.1075 42.5143 39.57 42.5143 32.5 42.5143H20C12.93 42.5143 9.3925 42.5143 7.1975 40.3168C5 38.1218 5 34.5843 5 27.5143Z" stroke="#22798C" stroke-width="3.75"/>
<path d="M47.4999 20.2042C49.9374 20.4442 51.5774 20.9867 52.8024 22.2117C55.0024 24.4067 55.0024 27.9442 55.0024 35.0142C55.0024 42.0842 55.0024 45.6217 52.8024 47.8167C50.6074 50.0167 47.0699 50.0167 40.0024 50.0167H27.5024C20.4274 50.0167 16.8924 50.0167 14.6974 47.8167C13.4724 46.5917 12.9299 44.9517 12.6899 42.5142" stroke="#22798C" stroke-width="3.75"/>
<path d="M32.5 27.5143C32.5 29.1719 31.8415 30.7616 30.6694 31.9337C29.4973 33.1058 27.9076 33.7643 26.25 33.7643C24.5924 33.7643 23.0027 33.1058 21.8306 31.9337C20.6585 30.7616 20 29.1719 20 27.5143C20 25.8567 20.6585 24.267 21.8306 23.0949C23.0027 21.9228 24.5924 21.2643 26.25 21.2643C27.9076 21.2643 29.4973 21.9228 30.6694 23.0949C31.8415 24.267 32.5 25.8567 32.5 27.5143Z" stroke="#22798C" stroke-width="3.75"/>
<path d="M40 32.5142V22.5142M12.5 32.5142V22.5142" stroke="#22798C" stroke-width="3.75" stroke-linecap="round"/>
</svg>
