<svg width="18" height="18" viewBox="0 0 18 18" fill="none" xmlns="http://www.w3.org/2000/svg">
<g clip-path="url(#clip0_7720_4918)">
<path d="M14.9405 7.23003L15.6358 6.53478C16.1888 5.98171 16.4996 5.23158 16.4996 4.44941C16.4996 3.66724 16.1888 2.91711 15.6358 2.36403C15.0827 1.81096 14.3326 1.50024 13.5504 1.50024C12.7682 1.50024 12.0181 1.81096 11.465 2.36403L10.7698 3.05928L4.37827 9.44928C3.94552 9.88278 3.72877 10.0995 3.54277 10.338C3.3231 10.6195 3.13474 10.924 2.98102 11.2463C2.85127 11.5193 2.75452 11.8103 2.56102 12.3908L1.74052 14.8515M14.9405 7.23003C14.9405 7.23003 13.4638 7.14303 12.1603 5.83953C10.8568 4.53678 10.7705 3.05928 10.7705 3.05928M14.9405 7.23003L8.54977 13.62C8.11702 14.0528 7.90027 14.2695 7.66177 14.4555C7.38032 14.6752 7.07577 14.8636 6.75352 15.0173C6.48052 15.147 6.19027 15.2438 5.60902 15.4373L3.14827 16.2578M3.14827 16.2578L2.54677 16.4588C2.40656 16.5058 2.25602 16.5128 2.11206 16.4789C1.9681 16.4451 1.83644 16.3718 1.73187 16.2672C1.62731 16.1626 1.55398 16.031 1.52013 15.887C1.48628 15.743 1.49326 15.5925 1.54027 15.4523L1.74127 14.8508L3.14827 16.2578Z" stroke="#22798C" stroke-width="1.125"/>
</g>
<defs>
<clipPath id="clip0_7720_4918">
<rect width="18" height="18" fill="white"/>
</clipPath>
</defs>
</svg>
