<svg width="20" height="16" viewBox="0 0 20 16" fill="none" xmlns="http://www.w3.org/2000/svg">
<g clip-path="url(#clip0_9252_2041)">
<path d="M17.2898 3.58517L17.1665 3.47007C14.3947 0.815484 10.7854 1.11352 8.88002 1.52769C8.21883 1.6644 7.57196 1.86294 6.94793 2.12068C6.86839 2.15588 6.80032 2.21268 6.75145 2.28462C6.70257 2.35657 6.67485 2.44078 6.67142 2.52768C6.668 2.61459 6.68901 2.70072 6.73207 2.77629C6.77514 2.85185 6.83853 2.91383 6.91504 2.95518C7.21204 3.11653 7.37546 3.29638 7.39909 3.48959C7.44122 3.8349 7.10002 4.26551 6.90887 4.44947C6.21693 4.94172 5.57619 5.50224 4.9963 6.12259C4.97163 6.03934 4.94286 5.95712 4.91305 5.87697C5.22445 5.69506 5.47316 5.36825 5.63245 4.92633C5.79175 4.49058 5.96851 3.55536 5.50194 3.14016C5.40159 3.05126 5.27611 2.9957 5.14283 2.98116C5.00955 2.96662 4.87504 2.99381 4.75788 3.05898C4.42471 3.22917 4.13474 3.4731 3.91001 3.77221C3.59758 3.61086 3.05084 3.41662 2.50511 3.63655C2.00052 3.83798 1.93371 4.22029 1.92858 4.37445C1.91316 4.86775 2.37974 5.31583 2.82063 5.52343C3.11878 5.66101 3.45002 5.71057 3.77538 5.66628C4.02034 6.05392 4.17261 6.49281 4.22037 6.94887C4.22165 6.98089 4.22682 7.01264 4.23579 7.04341C4.00121 7.36096 3.79063 7.69555 3.6058 8.0444C3.44811 7.78107 3.22089 7.56629 2.94909 7.42367C2.70608 7.30271 2.43437 7.25127 2.16396 7.27503C1.89356 7.29879 1.63498 7.39682 1.41679 7.5583C0.836116 7.97864 0.368514 8.91385 0.635717 9.48937C0.678885 9.58289 0.925539 10.0392 1.58738 9.87271C2.3006 9.698 2.72095 9.09576 2.91723 8.72681C3.04282 9.06597 3.10315 9.42583 3.09504 9.78741C3.09638 9.81815 3.10016 9.84873 3.10634 9.87887C3.07397 10.3807 3.11552 10.8845 3.22966 11.3742C3.46498 12.4301 4.10715 13.3507 5.01685 13.9363L5.03124 13.9445C5.86369 14.3833 6.70642 14.5139 7.53372 14.334C8.16366 14.1893 8.74756 13.8898 9.23253 13.4625C9.87395 13.9418 10.5899 14.3123 11.3517 14.5591C11.3589 14.5611 12.1009 14.8088 13.4071 14.7975L13.4451 14.8016C13.4574 14.8026 13.4698 14.8037 13.4821 14.8037L13.5006 14.8047C13.9046 14.7993 14.3071 14.7535 14.702 14.668C17.5241 14.0545 19.559 11.4574 19.5394 8.49147C19.5261 6.63439 18.6649 4.7547 17.2898 3.58517ZM3.71576 4.60466C3.70292 4.67967 3.69673 4.75568 3.69727 4.83178L3.69624 4.90783L3.62019 4.91297C3.59347 4.914 3.56778 4.91503 3.54208 4.91503C3.40632 4.91691 3.27184 4.88847 3.14846 4.83178C2.97734 4.75396 2.83062 4.63104 2.72403 4.47619L2.67983 4.40118L2.75691 4.36213C2.76849 4.35508 2.78092 4.34955 2.79391 4.34568C3.11251 4.21722 3.48453 4.39912 3.67878 4.51936L3.72605 4.54917L3.71576 4.60466ZM2.3407 8.15334C2.33865 8.16054 2.0478 8.9488 1.43426 9.12145L1.30785 9.15742L1.33046 9.02793C1.40847 8.69255 1.59707 8.39318 1.86589 8.17801C1.95083 8.11588 2.04778 8.07213 2.15057 8.04955C2.18706 8.04125 2.2242 8.0361 2.26157 8.03413L2.37564 8.02797L2.3407 8.15334ZM4.32726 4.61802C4.42946 4.30964 4.63163 4.04417 4.90175 3.86367L5.02507 3.77529L5.03227 3.92637C5.04257 4.26855 4.96359 4.60751 4.80309 4.90988C4.73594 5.04667 4.62781 5.15911 4.49375 5.23156L4.42284 5.26547L4.38686 5.19559C4.29142 5.01852 4.26999 4.81085 4.32726 4.61802ZM9.68884 11.5612C9.59037 11.8384 9.44583 12.0969 9.2613 12.3259L9.20067 12.405L9.13489 12.3289C8.75504 11.9118 8.51253 11.388 8.44015 10.8285C8.43914 10.8233 8.39906 10.401 8.62515 10.1502C8.71587 10.0489 8.83522 9.9776 8.96738 9.94568C9.18011 9.89944 9.38771 9.99398 9.58401 10.2283C9.62511 10.29 9.92726 10.7853 9.68884 11.5612ZM14.5047 13.7595C14.1797 13.8301 13.8485 13.8683 13.516 13.8736L13.4749 13.8695C13.4605 13.8685 13.4441 13.8674 13.4287 13.8674H13.4235C12.2941 13.8787 11.6497 13.6783 11.6435 13.6763C11.0122 13.4698 10.4158 13.1687 9.87484 12.7832C10.1124 12.4846 10.297 12.1474 10.4206 11.7863C10.7916 10.5818 10.2263 9.80694 10.2047 9.77918L10.1883 9.75555C9.66621 9.12145 9.09687 9.13378 8.80499 9.1975C8.51549 9.26299 8.25361 9.4171 8.05579 9.63839C7.59949 10.1471 7.6704 10.8388 7.68068 10.9158C7.76687 11.6256 8.07017 12.2914 8.5491 12.8222C8.19845 13.1167 7.78277 13.3235 7.3364 13.4255C6.73109 13.5571 6.10417 13.4563 5.47728 13.1285C4.79626 12.668 4.3163 11.9654 4.13509 11.1635C3.94616 10.3676 4.00094 9.5333 4.29233 8.76895C4.32213 8.69392 5.05283 6.91392 7.47515 5.1884C7.48951 5.17791 7.50323 5.16659 7.51625 5.15448C7.6108 5.06918 8.43297 4.2984 8.32198 3.3786C8.29294 3.13522 8.19965 2.90395 8.05169 2.70853C8.38262 2.6037 8.7269 2.51224 9.07838 2.43619C11.1842 1.97886 14.1861 1.90281 16.5262 4.14321L16.6598 4.27065L16.669 4.27887C16.6742 4.28195 16.6783 4.28607 16.6803 4.28709C17.2796 4.80451 17.7584 5.44677 18.0832 6.16883C18.4208 6.89962 18.5998 7.69367 18.6083 8.49866C18.6258 11.0258 16.9003 13.2385 14.5047 13.7595Z" fill="#EF6079"/>
<path d="M16.1448 6.2849C15.9907 5.84299 15.7235 5.71246 15.5261 5.6806C15.3617 5.65389 15.039 5.67033 14.7317 6.07114C14.6339 6.20134 14.5528 6.34323 14.4902 6.49352C14.2252 6.27549 13.9108 6.12586 13.5745 6.05778C13.4494 6.03091 13.3195 6.03593 13.1969 6.07239C13.0742 6.10885 12.9627 6.17556 12.8726 6.2664C12.6567 6.50072 12.6095 6.89844 12.7492 7.30542C12.8623 7.63737 13.2682 8.43282 14.593 8.73086C14.5849 8.99329 14.5525 9.25441 14.4964 9.51089C14.4824 9.57871 14.4836 9.64879 14.5 9.71609C14.5163 9.78338 14.5474 9.84621 14.5909 9.90007C14.6344 9.95392 14.6894 9.99746 14.7518 10.0275C14.8141 10.0576 14.8824 10.0735 14.9516 10.0741C14.9845 10.0739 15.0172 10.0701 15.0493 10.0628C15.1367 10.0438 15.2168 10.0001 15.28 9.93688C15.3432 9.87364 15.3869 9.79355 15.4059 9.70615C15.5092 9.24583 15.5431 8.77265 15.5066 8.3023C15.7892 8.05873 16.5055 7.31467 16.1448 6.2849ZM15.2969 6.59322L15.3987 6.42982L15.446 6.61583C15.4801 6.7645 15.4795 6.91902 15.4444 7.06745C15.4093 7.21589 15.3406 7.35427 15.2435 7.47192L15.1428 7.60449L15.0986 7.44519C15.0277 7.18929 15.1716 6.79362 15.2969 6.59321V6.59322ZM13.4399 6.92312L13.4214 6.79465L13.5457 6.83165C14.0054 7.0096 14.381 7.35465 14.5971 7.7977L14.6824 7.97241L14.4974 7.91177C13.9486 7.73192 13.6845 7.44827 13.5591 7.2417V7.24068C13.4988 7.14371 13.4583 7.03579 13.4399 6.92311V6.92312Z" fill="#EF6079"/>
</g>
<defs>
<clipPath id="clip0_9252_2041">
<rect width="19.9957" height="15.7269" fill="white" transform="translate(0.00390625 0.136475)"/>
</clipPath>
</defs>
</svg>
