<svg width="14" height="14" viewBox="0 0 14 14" fill="none" xmlns="http://www.w3.org/2000/svg">
<g clip-path="url(#clip0_7720_4825)">
<path d="M0.668945 10.0757C0.668945 9.24866 0.668945 8.83577 0.855186 8.5321C0.959271 8.36229 1.10205 8.21951 1.27186 8.11543C1.5749 7.92919 1.98905 7.92919 2.81545 7.92919H3.50991C4.70059 7.92919 5.2953 7.92919 5.66525 8.29914C6.03521 8.6691 6.03521 9.26381 6.03521 10.4545V11.1489C6.03521 11.976 6.03521 12.3889 5.84897 12.6925C5.74488 12.8623 5.60211 13.0051 5.43229 13.1092C5.12926 13.2955 4.71511 13.2955 3.8887 13.2955C2.64878 13.2955 2.02882 13.2955 1.57363 13.0164C1.31892 12.8603 1.10475 12.6461 0.948622 12.3914C0.668945 11.9349 0.668945 11.3156 0.668945 10.0757ZM7.92919 2.81545C7.92919 1.98842 7.92919 1.57553 8.11543 1.27186C8.21951 1.10205 8.36229 0.959271 8.5321 0.855186C8.83514 0.668945 9.24929 0.668945 10.0757 0.668945C11.3156 0.668945 11.9356 0.668945 12.3914 0.947991C12.6461 1.10412 12.8603 1.31829 13.0164 1.573C13.2955 2.02945 13.2955 2.64941 13.2955 3.8887C13.2955 4.71574 13.2955 5.12863 13.1092 5.43229C13.0051 5.60211 12.8623 5.74488 12.6925 5.84897C12.3895 6.03521 11.9753 6.03521 11.1489 6.03521H10.4545C9.26381 6.03521 8.6691 6.03521 8.29914 5.66525C7.92919 5.2953 7.92919 4.70059 7.92919 3.50991V2.81545Z" stroke="#22798C" stroke-width="0.946988"/>
<path d="M9.82353 3.35214C9.82353 3.02701 9.82352 2.86413 9.9056 2.74923C9.93419 2.7087 9.96941 2.67327 10.0098 2.64443C10.1247 2.56299 10.2875 2.56299 10.6127 2.56299C10.9378 2.56299 11.1007 2.56299 11.2156 2.64506C11.2561 2.67366 11.2916 2.70887 11.3204 2.74923C11.4018 2.86413 11.4018 3.02701 11.4018 3.35214C11.4018 3.67728 11.4018 3.84016 11.3198 3.95506C11.2912 3.99559 11.256 4.03102 11.2156 4.05986C11.1007 4.1413 10.9378 4.1413 10.6127 4.1413C10.2875 4.1413 10.1247 4.1413 10.0098 4.05923C9.96923 4.03063 9.93381 3.99542 9.90497 3.95506C9.82353 3.84016 9.82353 3.67728 9.82353 3.35214ZM7.45606 13.2955C7.45606 13.4211 7.50594 13.5415 7.59474 13.6303C7.68354 13.7191 7.80397 13.769 7.92955 13.769C8.05513 13.769 8.17556 13.7191 8.26436 13.6303C8.35316 13.5415 8.40304 13.4211 8.40304 13.2955H7.45606ZM11.4018 7.45576H10.1392V8.40275H11.4018V7.45576ZM7.45606 11.4015V13.2955H8.40304V11.4015H7.45606ZM10.1392 7.45576C9.70547 7.45576 9.34498 7.45576 9.05394 7.4848C8.75469 7.5151 8.47754 7.58139 8.22754 7.74869L8.75406 8.53596C8.82224 8.48987 8.92578 8.44946 9.1499 8.42674C9.3816 8.40338 9.68653 8.40275 10.1392 8.40275V7.45576ZM8.40304 10.1389C8.40304 9.6856 8.40304 9.3813 8.42703 9.1496C8.44976 8.92548 8.49017 8.82195 8.53625 8.75376L7.74899 8.22724C7.58232 8.47724 7.5154 8.7544 7.4851 9.05364C7.45542 9.34468 7.45606 9.70517 7.45606 10.1389H8.40304ZM8.22754 7.74869C8.03814 7.87496 7.87526 8.03784 7.74899 8.22724L8.53625 8.75376C8.59384 8.66756 8.66786 8.59355 8.75406 8.53596L8.22754 7.74869ZM13.7693 7.92925C13.7693 7.80367 13.7194 7.68324 13.6306 7.59444C13.5418 7.50564 13.4214 7.45576 13.2958 7.45576C13.1702 7.45576 13.0498 7.50564 12.961 7.59444C12.8722 7.68324 12.8223 7.80367 12.8223 7.92925H13.7693ZM10.1392 13.769H11.4018V12.822H10.1392V13.769ZM13.7693 10.1389V7.92925H12.8223V10.1389H13.7693ZM11.4018 13.769C11.6897 13.769 11.929 13.769 12.1247 13.7564C12.3248 13.7425 12.5142 13.7135 12.6973 13.6371L12.3349 12.762C12.2863 12.7823 12.2125 12.8006 12.0603 12.8113C11.9044 12.822 11.7023 12.822 11.4018 12.822V13.769ZM12.8223 11.4015C12.8223 11.7021 12.8223 11.9041 12.8116 12.06C12.8009 12.2122 12.7825 12.286 12.7623 12.3346L13.6374 12.697C13.7131 12.5139 13.7428 12.3245 13.7561 12.1244C13.7693 11.9287 13.7693 11.6888 13.7693 11.4015H12.8223ZM12.6973 13.6371C12.908 13.5499 13.0995 13.4214 13.2608 13.2602C13.4221 13.099 13.55 12.9077 13.6374 12.697L12.7623 12.3346C12.7227 12.4305 12.6645 12.5175 12.5912 12.5909C12.5178 12.6642 12.4308 12.7224 12.3349 12.762L12.6973 13.6371Z" fill="#22798C"/>
<path d="M0.668945 3.8887C0.668945 2.64878 0.668945 2.02882 0.947991 1.57363C1.10412 1.31892 1.31829 1.10475 1.573 0.948622C2.02945 0.668945 2.64941 0.668945 3.8887 0.668945C4.71574 0.668945 5.12863 0.668945 5.43229 0.855186C5.60211 0.959271 5.74488 1.10205 5.84897 1.27186C6.03521 1.5749 6.03521 1.98905 6.03521 2.81545V3.50991C6.03521 4.70059 6.03521 5.2953 5.66525 5.66525C5.2953 6.03521 4.70059 6.03521 3.50991 6.03521H2.81545C1.98842 6.03521 1.57553 6.03521 1.27186 5.84897C1.10205 5.74488 0.959271 5.60211 0.855186 5.43229C0.668945 5.12926 0.668945 4.71511 0.668945 3.8887Z" stroke="#22798C" stroke-width="0.946988"/>
<path d="M2.5625 3.35214C2.5625 3.02701 2.5625 2.86413 2.64457 2.74923C2.67317 2.7087 2.70838 2.67327 2.74874 2.64443C2.86364 2.56299 3.02652 2.56299 3.35166 2.56299C3.67679 2.56299 3.83967 2.56299 3.95457 2.64506C3.9951 2.67366 4.03053 2.70887 4.05937 2.74923C4.14081 2.86413 4.14081 3.02701 4.14081 3.35214C4.14081 3.67728 4.14081 3.84016 4.05874 3.95506C4.03015 3.99559 3.99493 4.03102 3.95457 4.05986C3.83967 4.1413 3.67679 4.1413 3.35166 4.1413C3.02652 4.1413 2.86364 4.1413 2.74874 4.05923C2.70821 4.03063 2.67278 3.99542 2.64394 3.95506C2.5625 3.84016 2.5625 3.67728 2.5625 3.35214ZM2.5625 10.6124C2.5625 10.2873 2.5625 10.1244 2.64457 10.0095C2.67317 9.96894 2.70838 9.93351 2.74874 9.90467C2.86364 9.82323 3.02652 9.82323 3.35166 9.82323C3.67679 9.82323 3.83967 9.82323 3.95457 9.9053C3.9951 9.9339 4.03053 9.96911 4.05937 10.0095C4.14081 10.1244 4.14081 10.2873 4.14081 10.6124C4.14081 10.9375 4.14081 11.1004 4.05874 11.2153C4.03015 11.2558 3.99493 11.2913 3.95457 11.3201C3.83967 11.4015 3.67679 11.4015 3.35166 11.4015C3.02652 11.4015 2.86364 11.4015 2.74874 11.3195C2.70821 11.2909 2.67278 11.2557 2.64394 11.2153C2.5625 11.1004 2.5625 10.9375 2.5625 10.6124ZM9.50708 10.6124C9.50708 10.1692 9.50708 9.9476 9.61377 9.78787C9.65972 9.7192 9.71871 9.66021 9.78739 9.61426C9.94711 9.50757 10.1687 9.50757 10.6119 9.50757C11.0551 9.50757 11.2767 9.50757 11.4364 9.61426C11.5051 9.66021 11.5641 9.7192 11.61 9.78787C11.7167 9.9476 11.7167 10.1692 11.7167 10.6124C11.7167 11.0556 11.7167 11.2772 11.61 11.4369C11.5641 11.5056 11.5051 11.5646 11.4364 11.6105C11.2767 11.7172 11.0551 11.7172 10.6119 11.7172C10.1687 11.7172 9.94711 11.7172 9.78739 11.6105C9.71871 11.5646 9.65972 11.5056 9.61377 11.4369C9.50708 11.2772 9.50708 11.0556 9.50708 10.6124Z" fill="#22798C"/>
</g>
<defs>
<clipPath id="clip0_7720_4825">
<rect width="14" height="14" fill="white"/>
</clipPath>
</defs>
</svg>
