<svg width="200" height="201" viewBox="0 0 200 201" fill="none" xmlns="http://www.w3.org/2000/svg">
<path d="M193.749 175.333C192.056 175.333 190.591 174.715 189.354 173.478C188.117 172.241 187.499 170.776 187.499 169.083C187.499 167.391 188.117 165.926 189.354 164.689C190.591 163.452 192.056 162.833 193.749 162.833C195.441 162.833 196.906 163.452 198.143 164.689C199.38 165.926 199.999 167.391 199.999 169.083C199.999 170.776 199.38 172.241 198.143 173.478C196.906 174.715 195.441 175.333 193.749 175.333ZM193.749 125.333C192.056 125.333 190.591 124.715 189.354 123.478C188.117 122.241 187.499 120.776 187.499 119.083V106.583C187.499 104.891 188.117 103.426 189.354 102.189C190.591 100.952 192.056 100.333 193.749 100.333C195.441 100.333 196.906 100.952 198.143 102.189C199.38 103.426 199.999 104.891 199.999 106.583V119.083C199.999 120.776 199.38 122.241 198.143 123.478C196.906 124.715 195.441 125.333 193.749 125.333ZM193.749 75.3334H187.499V81.5834C187.499 83.2761 186.88 84.7409 185.643 85.9779C184.406 87.2149 182.941 87.8334 181.249 87.8334C179.556 87.8334 178.091 87.2149 176.854 85.9779C175.617 84.7409 174.999 83.2761 174.999 81.5834V75.3334H149.999V81.5834C149.999 83.2761 149.38 84.7409 148.143 85.9779C146.906 87.2149 145.441 87.8334 143.749 87.8334H137.499V94.0834C137.499 95.7761 136.88 97.2409 135.643 98.4779C134.406 99.7149 132.941 100.333 131.249 100.333C129.556 100.333 128.091 99.7149 126.854 98.4779C125.617 97.2409 124.999 95.7761 124.999 94.0834V50.3334H106.249C104.556 50.3334 103.091 49.7149 101.854 48.4779C100.617 47.2409 99.9988 45.7761 99.9988 44.0834C99.9988 42.3907 100.617 40.9258 101.854 39.6888C103.091 38.4519 104.556 37.8334 106.249 37.8334H124.999V12.8334H112.499V19.0834C112.499 20.7761 111.88 22.2409 110.643 23.4779C109.406 24.7149 107.941 25.3334 106.249 25.3334C104.556 25.3334 103.091 24.7149 101.854 23.4779C100.617 22.2409 99.9988 20.7761 99.9988 19.0834V6.58337C99.9988 4.89067 100.617 3.42582 101.854 2.18884C103.091 0.951864 104.556 0.333374 106.249 0.333374H193.749C195.441 0.333374 196.906 0.951864 198.143 2.18884C199.38 3.42582 199.999 4.89067 199.999 6.58337V69.0834C199.999 70.7761 199.38 72.2409 198.143 73.4779C196.906 74.7149 195.441 75.3334 193.749 75.3334ZM187.499 19.0834C187.499 17.3907 186.88 15.9258 185.643 14.6888C184.406 13.4519 182.941 12.8334 181.249 12.8334H143.749C142.056 12.8334 140.591 13.4519 139.354 14.6888C138.117 15.9258 137.499 17.3907 137.499 19.0834V56.5834C137.499 58.2761 138.117 59.7409 139.354 60.9779C140.591 62.2149 142.056 62.8334 143.749 62.8334H181.249C182.941 62.8334 184.406 62.2149 185.643 60.9779C186.88 59.7409 187.499 58.2761 187.499 56.5834V19.0834ZM168.749 50.3334H156.249C154.556 50.3334 153.091 49.7149 151.854 48.4779C150.617 47.2409 149.999 45.7761 149.999 44.0834V31.5834C149.999 29.8907 150.617 28.4258 151.854 27.1888C153.091 25.9519 154.556 25.3334 156.249 25.3334H168.749C170.441 25.3334 171.906 25.9519 173.143 27.1888C174.38 28.4258 174.999 29.8907 174.999 31.5834V44.0834C174.999 45.7761 174.38 47.2409 173.143 48.4779C171.906 49.7149 170.441 50.3334 168.749 50.3334ZM99.9988 62.8334H106.249C107.941 62.8334 109.406 63.4519 110.643 64.6888C111.88 65.9258 112.499 67.3907 112.499 69.0834C112.499 70.7761 111.88 72.2409 110.643 73.4779C109.406 74.7149 107.941 75.3334 106.249 75.3334H87.4988V81.5834C87.4988 83.2761 86.8803 84.7409 85.6433 85.9779C84.4063 87.2149 82.9415 87.8334 81.2488 87.8334C79.5561 87.8334 78.0912 87.2149 76.8542 85.9779C75.6173 84.7409 74.9988 83.2761 74.9988 81.5834V75.3334H37.4988V87.8334H49.9988V81.5834C49.9988 79.8907 50.6173 78.4258 51.8542 77.1888C53.0912 75.9519 54.5561 75.3334 56.2488 75.3334C57.9415 75.3334 59.4063 75.9519 60.6433 77.1888C61.8803 78.4258 62.4988 79.8907 62.4988 81.5834V100.333H68.7488C70.4415 100.333 71.9063 100.952 73.1433 102.189C74.3803 103.426 74.9988 104.891 74.9988 106.583C74.9988 108.276 74.3803 109.741 73.1433 110.978C71.9063 112.215 70.4415 112.833 68.7488 112.833H56.2488C54.5561 112.833 53.0912 112.215 51.8542 110.978C50.6173 109.741 49.9988 108.276 49.9988 106.583V100.333H31.2488C29.5561 100.333 28.0912 99.78 26.8542 98.6732C25.6173 97.5664 24.9988 96.2318 24.9988 94.6693V75.3334H12.4988V82.1693C12.4988 83.7318 11.8803 85.0664 10.6433 86.1732C9.40633 87.28 7.94149 87.8334 6.24878 87.8334C4.55607 87.8334 3.09123 87.28 1.85425 86.1732C0.617269 85.0664 -0.0012207 83.7318 -0.0012207 82.1693V70.4506C-0.0012207 70.1901 0.0638834 69.9297 0.194092 69.6693C0.194092 69.5391 0.16154 69.4414 0.0964355 69.3763C0.0313314 69.3112 -0.0012207 69.2136 -0.0012207 69.0834V6.58337C-0.0012207 4.89067 0.617269 3.42582 1.85425 2.18884C3.09123 0.951864 4.55607 0.333374 6.24878 0.333374H68.7488C70.4415 0.333374 71.9063 0.951864 73.1433 2.18884C74.3803 3.42582 74.9988 4.89067 74.9988 6.58337V12.8334H81.2488C82.9415 12.8334 84.4063 13.4519 85.6433 14.6888C86.8803 15.9258 87.4988 17.3907 87.4988 19.0834C87.4988 20.7761 86.8803 22.2409 85.6433 23.4779C84.4063 24.7149 82.9415 25.3334 81.2488 25.3334H74.9988V37.8334H81.2488C82.9415 37.8334 84.4063 38.4519 85.6433 39.6888C86.8803 40.9258 87.4988 42.3907 87.4988 44.0834C87.4988 45.7761 86.8803 47.2409 85.6433 48.4779C84.4063 49.7149 82.9415 50.3334 81.2488 50.3334H74.9988V62.8334H87.4988V56.5834C87.4988 54.8907 88.1173 53.4258 89.3542 52.1888C90.5912 50.9519 92.0561 50.3334 93.7488 50.3334C95.4415 50.3334 96.9063 50.9519 98.1433 52.1888C99.3803 53.4258 99.9988 54.8907 99.9988 56.5834V62.8334ZM62.4988 19.0834C62.4988 17.3907 61.8803 15.9258 60.6433 14.6888C59.4063 13.4519 57.9415 12.8334 56.2488 12.8334H18.7488C17.0561 12.8334 15.5912 13.4519 14.3542 14.6888C13.1173 15.9258 12.4988 17.3907 12.4988 19.0834V56.5834C12.4988 58.2761 13.1173 59.7409 14.3542 60.9779C15.5912 62.2149 17.0561 62.8334 18.7488 62.8334H56.2488C57.9415 62.8334 59.4063 62.2149 60.6433 60.9779C61.8803 59.7409 62.4988 58.2761 62.4988 56.5834V19.0834ZM43.7488 50.3334H31.2488C29.5561 50.3334 28.0912 49.7149 26.8542 48.4779C25.6173 47.2409 24.9988 45.7761 24.9988 44.0834V31.5834C24.9988 29.8907 25.6173 28.4258 26.8542 27.1888C28.0912 25.9519 29.5561 25.3334 31.2488 25.3334H43.7488C45.4415 25.3334 46.9063 25.9519 48.1433 27.1888C49.3803 28.4258 49.9988 29.8907 49.9988 31.5834V44.0834C49.9988 45.7761 49.3803 47.2409 48.1433 48.4779C46.9063 49.7149 45.4415 50.3334 43.7488 50.3334ZM6.24878 100.333C7.94149 100.333 9.40633 100.952 10.6433 102.189C11.8803 103.426 12.4988 104.891 12.4988 106.583C12.4988 108.276 11.8803 109.741 10.6433 110.978C9.40633 112.215 7.94149 112.833 6.24878 112.833C4.55607 112.833 3.09123 112.215 1.85425 110.978C0.617269 109.741 -0.0012207 108.276 -0.0012207 106.583C-0.0012207 104.891 0.617269 103.426 1.85425 102.189C3.09123 100.952 4.55607 100.333 6.24878 100.333ZM93.7488 112.833C92.0561 112.833 90.5912 112.215 89.3542 110.978C88.1173 109.741 87.4988 108.276 87.4988 106.583C87.4988 104.891 88.1173 103.426 89.3542 102.189C90.5912 100.952 92.0561 100.333 93.7488 100.333C95.4415 100.333 96.9063 100.952 98.1433 102.189C99.3803 103.426 99.9988 104.891 99.9988 106.583C99.9988 108.276 99.3803 109.741 98.1433 110.978C96.9063 112.215 95.4415 112.833 93.7488 112.833ZM106.249 87.8334C107.941 87.8334 109.406 88.4519 110.643 89.6888C111.88 90.9258 112.499 92.3907 112.499 94.0834C112.499 95.7761 111.88 97.2409 110.643 98.4779C109.406 99.7149 107.941 100.333 106.249 100.333C104.556 100.333 103.091 99.7149 101.854 98.4779C100.617 97.2409 99.9988 95.7761 99.9988 94.0834C99.9988 92.3907 100.617 90.9258 101.854 89.6888C103.091 88.4519 104.556 87.8334 106.249 87.8334ZM149.999 94.0834C149.999 92.3907 150.617 90.9258 151.854 89.6888C153.091 88.4519 154.556 87.8334 156.249 87.8334C157.941 87.8334 159.406 88.4519 160.643 89.6888C161.88 90.9258 162.499 92.3907 162.499 94.0834C162.499 95.7761 161.88 97.2409 160.643 98.4779C159.406 99.7149 157.941 100.333 156.249 100.333C154.556 100.333 153.091 99.7149 151.854 98.4779C150.617 97.2409 149.999 95.7761 149.999 94.0834ZM6.24878 125.333H24.9988V119.083C24.9988 117.391 25.6173 115.926 26.8542 114.689C28.0912 113.452 29.5561 112.833 31.2488 112.833C32.9415 112.833 34.4063 113.452 35.6433 114.689C36.8803 115.926 37.4988 117.391 37.4988 119.083V125.333H68.7488C70.4415 125.333 71.9063 125.952 73.1433 127.189C74.3803 128.426 74.9988 129.891 74.9988 131.583V119.083C74.9988 117.391 75.6173 115.926 76.8542 114.689C78.0912 113.452 79.5561 112.833 81.2488 112.833C82.9415 112.833 84.4063 113.452 85.6433 114.689C86.8803 115.926 87.4988 117.391 87.4988 119.083V131.583H112.499V119.083C112.499 117.391 113.117 115.926 114.354 114.689C115.591 113.452 117.056 112.833 118.749 112.833H162.499V106.583C162.499 104.891 163.117 103.426 164.354 102.189C165.591 100.952 167.056 100.333 168.749 100.333C170.441 100.333 171.906 100.952 173.143 102.189C174.38 103.426 174.999 104.891 174.999 106.583V137.833H181.249C182.941 137.833 184.406 138.452 185.643 139.689C186.88 140.926 187.499 142.391 187.499 144.083C187.499 145.776 186.88 147.241 185.643 148.478C184.406 149.715 182.941 150.333 181.249 150.333H174.999V169.083C174.999 170.776 174.38 172.241 173.143 173.478C171.906 174.715 170.441 175.333 168.749 175.333H149.999V194.083C149.999 195.776 149.38 197.241 148.143 198.478C146.906 199.715 145.441 200.333 143.749 200.333C142.056 200.333 140.591 199.715 139.354 198.478C138.117 197.241 137.499 195.776 137.499 194.083V175.333H124.999V181.583C124.999 183.276 124.38 184.741 123.143 185.978C121.906 187.215 120.441 187.833 118.749 187.833C117.056 187.833 115.591 187.215 114.354 185.978C113.117 184.741 112.499 183.276 112.499 181.583V175.333H106.249C104.556 175.333 103.091 174.715 101.854 173.478C100.617 172.241 99.9988 170.776 99.9988 169.083C99.9988 167.391 100.617 165.926 101.854 164.689C103.091 163.452 104.556 162.833 106.249 162.833H112.499V144.083H74.9988V175.333H81.2488C82.9415 175.333 84.4063 175.952 85.6433 177.189C86.8803 178.426 87.4988 179.891 87.4988 181.583C87.4988 183.276 86.8803 184.741 85.6433 185.978C84.4063 187.215 82.9415 187.833 81.2488 187.833H74.9988V194.083C74.9988 195.776 74.3803 197.241 73.1433 198.478C71.9063 199.715 70.4415 200.333 68.7488 200.333H6.24878C4.55607 200.333 3.09123 199.715 1.85425 198.478C0.617269 197.241 -0.0012207 195.776 -0.0012207 194.083V131.583C-0.0012207 129.891 0.617269 128.426 1.85425 127.189C3.09123 125.952 4.55607 125.333 6.24878 125.333ZM131.249 162.833H156.249C157.941 162.833 159.406 162.215 160.643 160.978C161.88 159.741 162.499 158.276 162.499 156.583V131.583C162.499 129.891 161.88 128.426 160.643 127.189C159.406 125.952 157.941 125.333 156.249 125.333H131.249C129.556 125.333 128.091 125.952 126.854 127.189C125.617 128.426 124.999 129.891 124.999 131.583V156.583C124.999 158.276 125.617 159.741 126.854 160.978C128.091 162.215 129.556 162.833 131.249 162.833ZM12.4988 181.583C12.4988 183.276 13.1173 184.741 14.3542 185.978C15.5912 187.215 17.0561 187.833 18.7488 187.833H56.2488C57.9415 187.833 59.4063 187.215 60.6433 185.978C61.8803 184.741 62.4988 183.276 62.4988 181.583V144.083C62.4988 142.391 61.8803 140.926 60.6433 139.689C59.4063 138.452 57.9415 137.833 56.2488 137.833H18.7488C17.0561 137.833 15.5912 138.452 14.3542 139.689C13.1173 140.926 12.4988 142.391 12.4988 144.083V181.583ZM31.2488 150.333H43.7488C45.4415 150.333 46.9063 150.952 48.1433 152.189C49.3803 153.426 49.9988 154.891 49.9988 156.583V169.083C49.9988 170.776 49.3803 172.241 48.1433 173.478C46.9063 174.715 45.4415 175.333 43.7488 175.333H31.2488C29.5561 175.333 28.0912 174.715 26.8542 173.478C25.6173 172.241 24.9988 170.776 24.9988 169.083V156.583C24.9988 154.891 25.6173 153.426 26.8542 152.189C28.0912 150.952 29.5561 150.333 31.2488 150.333ZM143.749 137.833C145.441 137.833 146.906 138.452 148.143 139.689C149.38 140.926 149.999 142.391 149.999 144.083C149.999 145.776 149.38 147.241 148.143 148.478C146.906 149.715 145.441 150.333 143.749 150.333C142.056 150.333 140.591 149.715 139.354 148.478C138.117 147.241 137.499 145.776 137.499 144.083C137.499 142.391 138.117 140.926 139.354 139.689C140.591 138.452 142.056 137.833 143.749 137.833ZM93.7488 150.333C95.4415 150.333 96.9063 150.952 98.1433 152.189C99.3803 153.426 99.9988 154.891 99.9988 156.583C99.9988 158.276 99.3803 159.741 98.1433 160.978C96.9063 162.215 95.4415 162.833 93.7488 162.833C92.0561 162.833 90.5912 162.215 89.3542 160.978C88.1173 159.741 87.4988 158.276 87.4988 156.583C87.4988 154.891 88.1173 153.426 89.3542 152.189C90.5912 150.952 92.0561 150.333 93.7488 150.333ZM106.249 187.833C107.941 187.833 109.406 188.452 110.643 189.689C111.88 190.926 112.499 192.391 112.499 194.083C112.499 195.776 111.88 197.241 110.643 198.478C109.406 199.715 107.941 200.333 106.249 200.333C104.556 200.333 103.091 199.715 101.854 198.478C100.617 197.241 99.9988 195.776 99.9988 194.083C99.9988 192.391 100.617 190.926 101.854 189.689C103.091 188.452 104.556 187.833 106.249 187.833ZM168.749 187.833H174.999V181.583C174.999 179.891 175.617 178.426 176.854 177.189C178.091 175.952 179.556 175.333 181.249 175.333C182.941 175.333 184.406 175.952 185.643 177.189C186.88 178.426 187.499 179.891 187.499 181.583V187.833H193.749C195.441 187.833 196.906 188.452 198.143 189.689C199.38 190.926 199.999 192.391 199.999 194.083C199.999 195.776 199.38 197.241 198.143 198.478C196.906 199.715 195.441 200.333 193.749 200.333H168.749C167.056 200.333 165.591 199.715 164.354 198.478C163.117 197.241 162.499 195.776 162.499 194.083C162.499 192.391 163.117 190.926 164.354 189.689C165.591 188.452 167.056 187.833 168.749 187.833Z" fill="black"/>
</svg>
